<svg xmlns="http://www.w3.org/2000/svg" width="14.102" height="16.271" viewBox="0 0 14.102 16.271">
  <path id="bug" d="M10.1,16.271h0a9.9,9.9,0,0,1-2.383-4.383,10.391,10.391,0,0,1,.7-5.17,9.677,9.677,0,0,0,1.87-.867,11.363,11.363,0,0,0,1.507-1.545A7.578,7.578,0,0,1,14.1,10.035a6.841,6.841,0,0,1-2,4.578,10.02,10.02,0,0,1-2,1.658Zm-6.091,0H4a10.008,10.008,0,0,1-2-1.658,6.842,6.842,0,0,1-2-4.578A7.512,7.512,0,0,1,2.318,4.306,11.363,11.363,0,0,0,3.823,5.851a9.785,9.785,0,0,0,1.871.867,10.392,10.392,0,0,1,.694,5.17,9.7,9.7,0,0,1-2.383,4.383ZM7.2,5.744A5.535,5.535,0,0,1,3.36,3.62s0,0,.01-.007a8.5,8.5,0,0,1,1.4-.664L3.432,1.361A.755.755,0,1,1,4.589.39L6.295,2.422a.689.689,0,0,1,.086.128,5.318,5.318,0,0,1,.612-.037,6.7,6.7,0,0,1,.861.059A.77.77,0,0,1,7.9,2.5L9.423.322a.755.755,0,0,1,1.238.867L9.437,2.937a10.289,10.289,0,0,1,1.336.528C10.63,3.7,9.325,5.744,7.2,5.744Z" transform="translate(0 0)" fill="#fff"/>
</svg>
