<svg xmlns="http://www.w3.org/2000/svg" width="11.18" height="14.922" viewBox="0 0 11.18 14.922">
  <path id="fire" d="M5.2,14.922a4.99,4.99,0,0,1-3.7-1.6A5.358,5.358,0,0,1,.051,8.786a7.4,7.4,0,0,1,.7-2.316,3.564,3.564,0,0,0-.091.78,1.4,1.4,0,0,0,.227.738A.1.1,0,0,1,.9,7.965a10.685,10.685,0,0,1,1.2-1.987A10.191,10.191,0,0,1,3.757,4.6a6.53,6.53,0,0,0,1-.8C5.949,2.466,5.232.025,5.225,0h0s0,0,.008.006A6.217,6.217,0,0,1,6.959,2.74,5.115,5.115,0,0,1,6.928,4.6c-.091.654-.169,1.219.082,1.508a.7.7,0,0,0,.561.2l.087,0a.733.733,0,0,0,.658-.345c.374-.681-.444-2.149-.452-2.163h0a.038.038,0,0,1,.012.006A8.156,8.156,0,0,1,9.615,5.143a4.927,4.927,0,0,1,1.551,3.809,4.191,4.191,0,0,1-2.051,3.243,6.239,6.239,0,0,1-1.85.783A4.031,4.031,0,0,0,8.4,11.523a5.609,5.609,0,0,0-.173-2.057.109.109,0,0,1,0,.016,4.078,4.078,0,0,1-.663,1.528,2.139,2.139,0,0,1-1.378.668,1.469,1.469,0,0,0,.84-1.327,1.5,1.5,0,0,0-3.009,0,1.446,1.446,0,0,0,.141.625,1.806,1.806,0,0,1-.6-1.079C3.547,9.92,3,12.324,4.571,13.44a3.693,3.693,0,0,0,2.155.549A9.917,9.917,0,0,0,9.3,13.6s0,0-.007.007A8.028,8.028,0,0,1,5.2,14.922Z" fill="#fff"/>
</svg>
