<svg xmlns="http://www.w3.org/2000/svg" width="14.102" height="14.102" viewBox="0 0 14.102 14.102">
  <path id="ghost" d="M6.939,14.054a8.551,8.551,0,0,1-4.917-2.333A6.665,6.665,0,0,1,0,6.908,6.989,6.989,0,0,1,7.052,0,6.988,6.988,0,0,1,14.1,6.908,6.813,6.813,0,0,1,12.3,11.524a.309.309,0,0,0-.1.259c.033.2.342.376.64.543s.615.342.661.554a.3.3,0,0,1-.067.25,5.884,5.884,0,0,1-3.267.923c-.616.031-1.292.049-1.9.049A12.315,12.315,0,0,1,6.939,14.054Zm1.985-6.93a1.092,1.092,0,0,0,1.1-1.079,1.076,1.076,0,0,0-.551-.935.965.965,0,0,1-.964.935H7.822A1.092,1.092,0,0,0,8.924,7.124ZM3.856,6.044a1.1,1.1,0,0,0,2.2,0H5.371a.964.964,0,0,1-.963-.935A1.076,1.076,0,0,0,3.856,6.044Z" fill="#fff"/>
</svg>
