<svg xmlns="http://www.w3.org/2000/svg" width="14.102" height="15.109" viewBox="0 0 14.102 15.109">
  <path id="fight" d="M7.051,15.109C3.163,15.109,0,12.229,0,8.688A6.1,6.1,0,0,1,1.935,4.269a20.514,20.514,0,0,0,.138,3.358.019.019,0,0,0,.013.007c.353-.08.075-5.327.016-6.378A1.668,1.668,0,0,1,5.117.761c.049,0,.094-.005.139-.005a1.676,1.676,0,0,1,.317.03,1.667,1.667,0,0,1,2.752.474h.008a1.687,1.687,0,0,1,.346.036,1.654,1.654,0,0,1,.936-.288,1.673,1.673,0,0,1,1.567,1.1,1.648,1.648,0,0,1,.365.177,1.632,1.632,0,0,1,.889-.267A1.689,1.689,0,0,1,14.1,3.681V8.744a6.115,6.115,0,0,1-2.086,4.5A7.375,7.375,0,0,1,7.051,15.109Z" fill="#fff"/>
</svg>
