<svg xmlns="http://www.w3.org/2000/svg" width="15.109" height="13.095" viewBox="0 0 15.109 13.095">
  <path id="flying" d="M5.274,13.095a5.3,5.3,0,0,0,4.891-2.974c.01-.021-3.141.819-3.04.522C7.169,10.51,9.1,9.8,10.507,8.982a3.2,3.2,0,0,0,1.181-1.474,15.029,15.029,0,0,1-2.051.829,8.376,8.376,0,0,1-2.61.267,21.907,21.907,0,0,0,4.848-2.18,4.008,4.008,0,0,0,1.687-2.2,15.887,15.887,0,0,1-2.34,1.155,13.294,13.294,0,0,1-4,.793c0-.2,1.679-.659,3.459-1.521a19.46,19.46,0,0,0,2.656-1.686A4.716,4.716,0,0,0,15.109,0a23.874,23.874,0,0,1-2.23,1.288,24.9,24.9,0,0,1-7.605,2.17C2.373,3.685,0,5.709,0,8.337A5.036,5.036,0,0,0,5.274,13.095Z" fill="#fff"/>
</svg>
