<svg xmlns="http://www.w3.org/2000/svg" width="19.404" height="19.404" viewBox="0 0 19.404 19.404">
  <path id="grass" d="M6.166,15.11A6.173,6.173,0,0,1,0,8.944C0,7.185,1.444,4.847,2.655,3.2A35.77,35.77,0,0,1,5.311,0l.015.011A41.293,41.293,0,0,1,8.821,3.2c1.6,1.652,3.51,3.99,3.51,5.749a6.16,6.16,0,0,1-5.05,6.065L6.971,11.96,8.686,9.3,6.721,10.907,6.7,8.616,7.709,7.041,6.385,7.76,5.564,4.9,5.74,7.979l-1.353-.23,1.5,1.11.129,2.153-1.913-.975,1.92,1.92.329,3.15H6.336Z" transform="translate(10.684) rotate(45)" fill="#fff"/>
</svg>
