<svg id="ice" xmlns="http://www.w3.org/2000/svg" width="16.712" height="17.064" viewBox="0 0 16.712 17.064">
  <path id="Polygon" d="M2.318,0l2.42,3.925L2.285,7.652,0,3.945Z" transform="translate(10.655 0.107) rotate(31)" fill="#fff"/>
  <path id="Polygon-2" data-name="Polygon" d="M2.164,0,4.372,4.02,2.022,7.964,0,3.946Z" transform="matrix(0.017, 1, -1, 0.017, 16.636, 6.403)" fill="#fff"/>
  <path id="Polygon_Copy" data-name="Polygon Copy" d="M2.164,0,4.372,4.02,2.022,7.964,0,3.946Z" transform="matrix(0.017, 1, -1, 0.017, 7.963, 6.403)" fill="#fff"/>
  <path id="Polygon-3" data-name="Polygon" d="M2.318,0l2.42,3.925L2.285,7.652,0,3.945Z" transform="matrix(0.848, -0.53, 0.53, 0.848, 2.009, 2.511)" fill="#fff"/>
  <path id="Polygon-4" data-name="Polygon" d="M2.318,0l2.42,3.925L2.285,7.652,0,3.945Z" transform="matrix(-0.848, 0.53, -0.53, -0.848, 14.72, 14.554)" fill="#fff"/>
  <path id="Polygon-5" data-name="Polygon" d="M2.318,0l2.42,3.925L2.285,7.652,0,3.945Z" transform="translate(6.104 17.017) rotate(-149)" fill="#fff"/>
</svg>
