<svg xmlns="http://www.w3.org/2000/svg" width="32.039" height="25.629" viewBox="0 0 32.039 25.629">
  <g id="Grupo_160" data-name="Grupo 160" transform="translate(-2878.178 -398.134)">
    <g id="Grupo_143" data-name="Grupo 143" transform="translate(1556.589 -205.456)">
      <g id="Grupo_147" data-name="Grupo 147">
        <g id="Grupo_144" data-name="Grupo 144">
          <g id="Grupo_143-2" data-name="Grupo 143">
            <path id="Trazado_105" data-name="Trazado 105" d="M1352.377,613.382l-8.544-8.543a4.271,4.271,0,1,0-6.04,6.04l5.523,5.524-5.523,5.523a4.271,4.271,0,1,0,6.04,6.041l8.544-8.544a4.272,4.272,0,0,0,0-6.041Zm-1.51,4.531-8.544,8.543a2.184,2.184,0,0,1-3.02,0,2.137,2.137,0,0,1,0-3.02l7.033-7.033-7.033-7.034a2.136,2.136,0,0,1,3.02-3.022l8.544,8.543a2.14,2.14,0,0,1,0,3.023Z" fill="#3567b0"/>
          </g>
        </g>
        <g id="Grupo_146" data-name="Grupo 146">
          <g id="Grupo_145" data-name="Grupo 145">
            <path id="Trazado_106" data-name="Trazado 106" d="M1337.425,613.382l-8.544-8.543a4.271,4.271,0,1,0-6.04,6.04l5.524,5.524-5.524,5.523a4.271,4.271,0,1,0,6.04,6.041l8.544-8.544a4.27,4.27,0,0,0,0-6.041Zm-1.51,4.531-8.544,8.543a2.184,2.184,0,0,1-3.02,0,2.137,2.137,0,0,1,0-3.02l7.034-7.033-7.034-7.034a2.136,2.136,0,0,1,3.02-3.022l8.544,8.543a2.138,2.138,0,0,1,0,3.023Z" fill="#3567b0"/>
          </g>
        </g>
      </g>
      <path id="Trazado_107" data-name="Trazado 107" d="M1335.915,617.913l-8.544,8.543a2.184,2.184,0,0,1-3.02,0,2.137,2.137,0,0,1,0-3.02l7.034-7.033-7.034-7.034a2.136,2.136,0,0,1,3.02-3.022l8.544,8.543a2.138,2.138,0,0,1,0,3.023Z" fill="#ffcb05"/>
      <path id="Trazado_108" data-name="Trazado 108" d="M1350.867,617.913l-8.544,8.543a2.184,2.184,0,0,1-3.02,0,2.137,2.137,0,0,1,0-3.02l7.033-7.033-7.033-7.034a2.136,2.136,0,0,1,3.02-3.022l8.544,8.543a2.14,2.14,0,0,1,0,3.023Z" fill="#ffcb05"/>
    </g>
  </g>
</svg>
