<svg xmlns="http://www.w3.org/2000/svg" xmlns:xlink="http://www.w3.org/1999/xlink" width="817.81" height="289.093" viewBox="0 0 817.81 289.093">
  <defs>
    <filter id="Trazado_24" x="453.969" y="95.799" width="29.617" height="40.927" filterUnits="userSpaceOnUse">
      <feOffset dy="3" input="SourceAlpha"/>
      <feGaussianBlur stdDeviation="3" result="blur"/>
      <feFlood flood-color="#00506a" flood-opacity="0.231"/>
      <feComposite operator="in" in2="blur"/>
      <feComposite in="SourceGraphic"/>
    </filter>
    <filter id="Trazado_25" x="355.287" y="110.509" width="34.248" height="50.056" filterUnits="userSpaceOnUse">
      <feOffset dy="3" input="SourceAlpha"/>
      <feGaussianBlur stdDeviation="3" result="blur-2"/>
      <feFlood flood-color="#00506a" flood-opacity="0.231"/>
      <feComposite operator="in" in2="blur-2"/>
      <feComposite in="SourceGraphic"/>
    </filter>
    <filter id="Trazado_26" x="408.595" y="99.301" width="33.269" height="35.663" filterUnits="userSpaceOnUse">
      <feOffset dy="3" input="SourceAlpha"/>
      <feGaussianBlur stdDeviation="3" result="blur-3"/>
      <feFlood flood-color="#00506a" flood-opacity="0.231"/>
      <feComposite operator="in" in2="blur-3"/>
      <feComposite in="SourceGraphic"/>
    </filter>
    <filter id="Trazado_27" x="133.474" y="71.064" width="99.125" height="51.355" filterUnits="userSpaceOnUse">
      <feOffset dy="3" input="SourceAlpha"/>
      <feGaussianBlur stdDeviation="3" result="blur-4"/>
      <feFlood flood-color="#00506a" flood-opacity="0.231"/>
      <feComposite operator="in" in2="blur-4"/>
      <feComposite in="SourceGraphic"/>
    </filter>
    <filter id="Trazado_28" x="124.807" y="63.422" width="124.352" height="69.053" filterUnits="userSpaceOnUse">
      <feOffset dy="3" input="SourceAlpha"/>
      <feGaussianBlur stdDeviation="3" result="blur-5"/>
      <feFlood flood-color="#00506a" flood-opacity="0.231"/>
      <feComposite operator="in" in2="blur-5"/>
      <feComposite in="SourceGraphic"/>
    </filter>
    <filter id="Trazado_29" x="218.807" y="23.94" width="99.125" height="51.355" filterUnits="userSpaceOnUse">
      <feOffset dy="3" input="SourceAlpha"/>
      <feGaussianBlur stdDeviation="3" result="blur-6"/>
      <feFlood flood-color="#00506a" flood-opacity="0.231"/>
      <feComposite operator="in" in2="blur-6"/>
      <feComposite in="SourceGraphic"/>
    </filter>
    <filter id="Trazado_30" x="27.376" y="74.667" width="172.613" height="186.171" filterUnits="userSpaceOnUse">
      <feOffset dy="3" input="SourceAlpha"/>
      <feGaussianBlur stdDeviation="3" result="blur-7"/>
      <feFlood flood-color="#00506a" flood-opacity="0.231"/>
      <feComposite operator="in" in2="blur-7"/>
      <feComposite in="SourceGraphic"/>
    </filter>
    <filter id="Trazado_31" x="144.834" y="114.686" width="100.381" height="112.117" filterUnits="userSpaceOnUse">
      <feOffset dy="3" input="SourceAlpha"/>
      <feGaussianBlur stdDeviation="3" result="blur-8"/>
      <feFlood flood-color="#00506a" flood-opacity="0.231"/>
      <feComposite operator="in" in2="blur-8"/>
      <feComposite in="SourceGraphic"/>
    </filter>
    <filter id="Trazado_32" x="175.798" y="127.973" width="53.722" height="55.343" filterUnits="userSpaceOnUse">
      <feOffset dy="3" input="SourceAlpha"/>
      <feGaussianBlur stdDeviation="3" result="blur-9"/>
      <feFlood flood-color="#00506a" flood-opacity="0.231"/>
      <feComposite operator="in" in2="blur-9"/>
      <feComposite in="SourceGraphic"/>
    </filter>
    <filter id="Trazado_33" x="291.017" y="48.178" width="159.743" height="184.205" filterUnits="userSpaceOnUse">
      <feOffset dy="3" input="SourceAlpha"/>
      <feGaussianBlur stdDeviation="3" result="blur-10"/>
      <feFlood flood-color="#00506a" flood-opacity="0.231"/>
      <feComposite operator="in" in2="blur-10"/>
      <feComposite in="SourceGraphic"/>
    </filter>
    <filter id="Trazado_34" x="576.142" y="212.609" width="27.083" height="31.401" filterUnits="userSpaceOnUse">
      <feOffset dy="3" input="SourceAlpha"/>
      <feGaussianBlur stdDeviation="3" result="blur-11"/>
      <feFlood flood-color="#00506a" flood-opacity="0.231"/>
      <feComposite operator="in" in2="blur-11"/>
      <feComposite in="SourceGraphic"/>
    </filter>
    <filter id="Trazado_35" x="457.942" y="74.782" width="133.662" height="145.354" filterUnits="userSpaceOnUse">
      <feOffset dy="3" input="SourceAlpha"/>
      <feGaussianBlur stdDeviation="3" result="blur-12"/>
      <feFlood flood-color="#00506a" flood-opacity="0.231"/>
      <feComposite operator="in" in2="blur-12"/>
      <feComposite in="SourceGraphic"/>
    </filter>
    <filter id="Trazado_36" x="534.416" y="80.416" width="138.767" height="181.044" filterUnits="userSpaceOnUse">
      <feOffset dy="3" input="SourceAlpha"/>
      <feGaussianBlur stdDeviation="3" result="blur-13"/>
      <feFlood flood-color="#00506a" flood-opacity="0.231"/>
      <feComposite operator="in" in2="blur-13"/>
      <feComposite in="SourceGraphic"/>
    </filter>
    <filter id="Trazado_37" x="605.304" y="125.623" width="33.336" height="44.098" filterUnits="userSpaceOnUse">
      <feOffset dy="3" input="SourceAlpha"/>
      <feGaussianBlur stdDeviation="3" result="blur-14"/>
      <feFlood flood-color="#00506a" flood-opacity="0.231"/>
      <feComposite operator="in" in2="blur-14"/>
      <feComposite in="SourceGraphic"/>
    </filter>
    <filter id="Trazado_38" x="661.403" y="75.288" width="66.599" height="182.15" filterUnits="userSpaceOnUse">
      <feOffset dy="3" input="SourceAlpha"/>
      <feGaussianBlur stdDeviation="3" result="blur-15"/>
      <feFlood flood-color="#00506a" flood-opacity="0.231"/>
      <feComposite operator="in" in2="blur-15"/>
      <feComposite in="SourceGraphic"/>
    </filter>
    <filter id="Trazado_39" x="720.928" y="81.014" width="70.193" height="181.796" filterUnits="userSpaceOnUse">
      <feOffset dy="3" input="SourceAlpha"/>
      <feGaussianBlur stdDeviation="3" result="blur-16"/>
      <feFlood flood-color="#00506a" flood-opacity="0.231"/>
      <feComposite operator="in" in2="blur-16"/>
      <feComposite in="SourceGraphic"/>
    </filter>
    <filter id="Trazado_40" x="0" y="0" width="817.81" height="289.093" filterUnits="userSpaceOnUse">
      <feOffset dy="3" input="SourceAlpha"/>
      <feGaussianBlur stdDeviation="8" result="blur-17"/>
      <feFlood flood-color="#00506a" flood-opacity="0.231"/>
      <feComposite operator="in" in2="blur-17"/>
      <feComposite in="SourceGraphic"/>
    </filter>
    <filter id="Trazado_41" x="232.709" y="106.618" width="105.457" height="111.719" filterUnits="userSpaceOnUse">
      <feOffset dy="3" input="SourceAlpha"/>
      <feGaussianBlur stdDeviation="3" result="blur-18"/>
      <feFlood flood-color="#00506a" flood-opacity="0.231"/>
      <feComposite operator="in" in2="blur-18"/>
      <feComposite in="SourceGraphic"/>
    </filter>
    <filter id="Trazado_42" x="264.106" y="120.078" width="54.003" height="55.173" filterUnits="userSpaceOnUse">
      <feOffset dy="3" input="SourceAlpha"/>
      <feGaussianBlur stdDeviation="3" result="blur-19"/>
      <feFlood flood-color="#00506a" flood-opacity="0.231"/>
      <feComposite operator="in" in2="blur-19"/>
      <feComposite in="SourceGraphic"/>
    </filter>
    <filter id="Trazado_43" x="376.316" y="71.192" width="108.758" height="106.588" filterUnits="userSpaceOnUse">
      <feOffset dy="3" input="SourceAlpha"/>
      <feGaussianBlur stdDeviation="3" result="blur-20"/>
      <feFlood flood-color="#00506a" flood-opacity="0.231"/>
      <feComposite operator="in" in2="blur-20"/>
      <feComposite in="SourceGraphic"/>
    </filter>
    <filter id="Trazado_44" x="400.919" y="91.66" width="52.642" height="56.897" filterUnits="userSpaceOnUse">
      <feOffset dy="3" input="SourceAlpha"/>
      <feGaussianBlur stdDeviation="3" result="blur-21"/>
      <feFlood flood-color="#00506a" flood-opacity="0.231"/>
      <feComposite operator="in" in2="blur-21"/>
      <feComposite in="SourceGraphic"/>
    </filter>
    <filter id="Trazado_45" x="385.885" y="28.52" width="76.62" height="54.639" filterUnits="userSpaceOnUse">
      <feOffset dy="3" input="SourceAlpha"/>
      <feGaussianBlur stdDeviation="3" result="blur-22"/>
      <feFlood flood-color="#00506a" flood-opacity="0.231"/>
      <feComposite operator="in" in2="blur-22"/>
      <feComposite in="SourceGraphic"/>
    </filter>
  </defs>
  <g id="Grupo_92" data-name="Grupo 92" transform="translate(-1243.283 -201.215)">
    <g transform="matrix(1, 0, 0, 1, 1243.28, 201.21)" filter="url(#Trazado_24)">
      <path id="Trazado_24-2" data-name="Trazado 24" d="M1619.674,308.582l3.886-22.927-11.617,12.834,1.5,1.961Z" transform="translate(-1148.97 -183.86)" fill="none"/>
    </g>
    <g transform="matrix(1, 0, 0, 1, 1243.28, 201.21)" filter="url(#Trazado_25)">
      <path id="Trazado_25-2" data-name="Trazado 25" d="M1549.538,297.2l-15.076,23.767,16.248,8.289a49.961,49.961,0,0,1-2.815-19.394A70.862,70.862,0,0,1,1549.538,297.2Z" transform="translate(-1170.18 -180.7)" fill="none"/>
    </g>
    <g transform="matrix(1, 0, 0, 1, 1243.28, 201.21)" filter="url(#Trazado_26)">
      <path id="Trazado_26-2" data-name="Trazado 26" d="M1577.044,306.068l14.542-16.524a15.088,15.088,0,0,0-5.478-1.139,10.921,10.921,0,0,0-6.595,2.252A17.965,17.965,0,0,0,1577.044,306.068Z" transform="translate(-1158.72 -183.1)" fill="none"/>
    </g>
    <g transform="matrix(1, 0, 0, 1, 1243.28, 201.21)" filter="url(#Trazado_27)">
      <path id="Trazado_27-2" data-name="Trazado 27" d="M1378.262,291.361a43.942,43.942,0,0,1,7.141-6.851,29.6,29.6,0,0,1,10.686-5.387,28.778,28.778,0,0,1,3.249-.67,23.161,23.161,0,0,1,2.957-.187,28.723,28.723,0,0,1,8.859,1.5,43.445,43.445,0,0,1,13.163,7.457l17.111-3.746a86.1,86.1,0,0,0-12.532-9.127,62.445,62.445,0,0,0-11.852-5.5,49.118,49.118,0,0,0-10.739-2.391q-2.239-.218-4.413-.218a41.3,41.3,0,0,0-5.287.334q-1.026.132-2.979.511a38.093,38.093,0,0,0-14.35,6.141,47.464,47.464,0,0,0-10.31,9.7,55.927,55.927,0,0,0-6.247,9.9,23.974,23.974,0,0,0-2.415,6.776l14.651-3.68A52.442,52.442,0,0,1,1378.262,291.361Z" transform="translate(-1217.83 -189.17)" fill="#ffcb05"/>
    </g>
    <g transform="matrix(1, 0, 0, 1, 1243.28, 201.21)" filter="url(#Trazado_28)">
      <path id="Trazado_28-2" data-name="Trazado 28" d="M1378.679,304.963l3.059-.769,1.626-2.7a44.153,44.153,0,0,1,2.773-3.771,36.781,36.781,0,0,1,5.888-5.587,21.8,21.8,0,0,1,7.884-3.98,20.98,20.98,0,0,1,2.27-.478,15.533,15.533,0,0,1,1.979-.125,21.223,21.223,0,0,1,6.5,1.125,36.185,36.185,0,0,1,10.8,6.2l2.835,2.228,3.522-.772,17.111-3.746,14.926-3.268-11.567-9.983a94.157,94.157,0,0,0-13.656-9.93,70.4,70.4,0,0,0-13.309-6.167,57.07,57.07,0,0,0-12.415-2.746c-1.728-.167-3.462-.252-5.148-.252a49.137,49.137,0,0,0-6.266.4c-.83.106-1.93.292-3.449.585l-.064.013-.062.014a45.85,45.85,0,0,0-17.193,7.383,55.236,55.236,0,0,0-11.95,11.274,63.742,63.742,0,0,0-7.092,11.273c-1.922,4.048-2.882,6.918-3.118,9.31l-1.062,10.8,10.529-2.645Zm-14.1-10.507a55.927,55.927,0,0,1,6.247-9.9,47.464,47.464,0,0,1,10.31-9.7,38.093,38.093,0,0,1,14.35-6.141q1.952-.376,2.979-.511a41.3,41.3,0,0,1,5.287-.334q2.174,0,4.413.218a49.118,49.118,0,0,1,10.739,2.391,62.445,62.445,0,0,1,11.852,5.5,86.1,86.1,0,0,1,12.532,9.127l-17.111,3.746a43.445,43.445,0,0,0-13.163-7.457,28.723,28.723,0,0,0-8.859-1.5,23.161,23.161,0,0,0-2.957.187,28.778,28.778,0,0,0-3.249.67,29.6,29.6,0,0,0-10.686,5.387,43.942,43.942,0,0,0-7.141,6.851,52.442,52.442,0,0,0-3.308,4.548l-14.651,3.68A23.974,23.974,0,0,1,1364.581,294.455Z" transform="translate(-1219.69 -190.81)" fill="#3567b0"/>
    </g>
    <g transform="matrix(1, 0, 0, 1, 1243.28, 201.21)" filter="url(#Trazado_29)">
      <path id="Trazado_29-2" data-name="Trazado 29" d="M1452.4,247.511a29.6,29.6,0,0,1,10.686-5.387,28.773,28.773,0,0,1,3.249-.67,23.156,23.156,0,0,1,2.957-.187,28.722,28.722,0,0,1,8.859,1.5,43.446,43.446,0,0,1,13.163,7.457l17.111-3.746a86.105,86.105,0,0,0-12.532-9.127,62.447,62.447,0,0,0-11.852-5.5,49.2,49.2,0,0,0-10.739-2.391q-2.239-.218-4.413-.218a41.3,41.3,0,0,0-5.287.334q-1.026.132-2.979.511a38.094,38.094,0,0,0-14.35,6.141,47.468,47.468,0,0,0-10.31,9.7,55.926,55.926,0,0,0-6.247,9.9,23.982,23.982,0,0,0-2.415,6.776l14.651-3.68a52.4,52.4,0,0,1,3.308-4.548A43.945,43.945,0,0,1,1452.4,247.511Z" transform="translate(-1199.5 -199.29)" fill="#ffcb05"/>
    </g>
    <g transform="matrix(1, 0, 0, 1, 1243.28, 201.21)" filter="url(#Trazado_30)">
      <path id="Trazado_30-2" data-name="Trazado 30" d="M1293.356,306.1l26.432,131.138,111.826-10.9-1.684-13.005a46.861,46.861,0,0,1-8.383-1.1,43.882,43.882,0,0,1-13.745-5.517l-.09-.057-.088-.057a44.72,44.72,0,0,1-10.9-10.291l-49.752,5.016-27.221-132.265L1277,294.455l5.544,15.808Z" transform="translate(-1240.62 -188.4)" fill="#ffcb05"/>
    </g>
    <g transform="matrix(1, 0, 0, 1, 1243.28, 201.21)" filter="url(#Trazado_31)">
      <path id="Trazado_31-2" data-name="Trazado 31" d="M1447.123,346.648c-.812-10.471.7-19.851,4.482-28.026a33.542,33.542,0,0,0-4.789-7.292,24.89,24.89,0,0,0-9.7-6.852,54.082,54.082,0,0,0-12.074-3.494,42.74,42.74,0,0,0-6.555-.5,46.022,46.022,0,0,0-5.077.285,43.7,43.7,0,0,0-19.326,7.143,69.241,69.241,0,0,0-17.175,16.73q-9.369,12.5-7.317,30.919a54.7,54.7,0,0,0,6.08,19.869,37.522,37.522,0,0,0,12.323,14.068,33.589,33.589,0,0,0,10.566,4.2,36.76,36.76,0,0,0,8.146.9,40.091,40.091,0,0,0,4.425-.248,43.493,43.493,0,0,0,10.956-2.729,50.24,50.24,0,0,0,10.832-5.925,56.137,56.137,0,0,0,10.306-9.621,70.925,70.925,0,0,0,7.819-11.5A65.859,65.859,0,0,1,1447.123,346.648Zm-12.352-10.374a23.312,23.312,0,0,1-5.382,10.04,14.4,14.4,0,0,1-9.228,4.7,16.257,16.257,0,0,1-1.788.1,23.423,23.423,0,0,1-10.264-2.7q-7.044-3.471-7.833-10.581a16.071,16.071,0,0,1,1.179-7.831,25.053,25.053,0,0,1,4.632-7.4,27.536,27.536,0,0,1,7.516-5.828,25.84,25.84,0,0,1,9.534-3,15.478,15.478,0,0,0-6.775,6.248,12.38,12.38,0,0,0-1.556,7.215q.51,4.587,3.007,6.167a6.343,6.343,0,0,0,2.956.708,7.431,7.431,0,0,0,.833-.047q4.129-.458,7.954-5.373a21.162,21.162,0,0,0,4.478-10.868,25.66,25.66,0,0,1,1.7,6.931A31.034,31.034,0,0,1,1434.771,336.274Z" transform="translate(-1215.39 -179.8)" fill="#ffcb05"/>
    </g>
    <g transform="matrix(1, 0, 0, 1, 1243.28, 201.21)" filter="url(#Trazado_32)">
      <path id="Trazado_32-2" data-name="Trazado 32" d="M1427.383,314.967a21.162,21.162,0,0,1-4.478,10.868q-3.827,4.916-7.954,5.373a7.438,7.438,0,0,1-.833.047,6.343,6.343,0,0,1-2.956-.708q-2.5-1.58-3.007-6.167a12.379,12.379,0,0,1,1.556-7.215,15.477,15.477,0,0,1,6.775-6.248,25.84,25.84,0,0,0-9.534,3,27.535,27.535,0,0,0-7.516,5.828,25.053,25.053,0,0,0-4.632,7.4,16.071,16.071,0,0,0-1.179,7.832q.791,7.109,7.833,10.581a23.422,23.422,0,0,0,10.264,2.7,16.257,16.257,0,0,0,1.788-.1,14.4,14.4,0,0,0,9.228-4.7,23.311,23.311,0,0,0,5.382-10.04,31.034,31.034,0,0,0,.963-11.521A25.66,25.66,0,0,0,1427.383,314.967Z" transform="translate(-1208.74 -176.94)" fill="#3567b0"/>
    </g>
    <g transform="matrix(1, 0, 0, 1, 1243.28, 201.21)" filter="url(#Trazado_33)">
      <path id="Trazado_33-2" data-name="Trazado 33" d="M1533.672,338.355l43.209-68.116-27.351-20.958-19.679,45.77-7.568-46.787L1484,265.758l3.311,10.64,11.191-3,2.614,29.547a34.962,34.962,0,0,1,11.33,9.157,44.747,44.747,0,0,1,7.582,13.879,62.466,62.466,0,0,1,3.077,15.2,73.645,73.645,0,0,1-.066,12.461,67.091,67.091,0,0,1-2,11.347,41.61,41.61,0,0,1-4.027,9.955,85.9,85.9,0,0,1-8.437,12.372l2.38,26.917,36.549-2.21-3.487-37.652,81.722,40.1-3.123-30.739Z" transform="translate(-1183.98 -194.09)" fill="#ffcb05"/>
    </g>
    <g transform="matrix(1, 0, 0, 1, 1243.28, 201.21)" filter="url(#Trazado_34)">
      <path id="Trazado_34-2" data-name="Trazado 34" d="M1707.868,389.107l9.083,1.663-1.748-13.4L1709,387.3Z" transform="translate(-1122.73 -158.76)" fill="#ffcb05"/>
    </g>
    <g transform="matrix(1, 0, 0, 1, 1243.28, 201.21)" filter="url(#Trazado_35)">
      <path id="Trazado_35-2" data-name="Trazado 35" d="M1722.812,270.586l-26.077-1.433-12.506,60.939-8.087-55.67-40.351-.471-8.508,50.194,2.98,3.891,2.612,3.411-1.556,4a27.26,27.26,0,0,1-7.744,10.565l-8.511,50.211,46.359.28,7.324-42.274,10.865,24.382,10.8-17.813,2.608,27.579,37.707-57.112Z" transform="translate(-1148.12 -188.37)" fill="#ffcb05"/>
    </g>
    <g transform="matrix(1, 0, 0, 1, 1243.28, 201.21)" filter="url(#Trazado_36)">
      <path id="Trazado_36-2" data-name="Trazado 36" d="M1743.016,356.386l16.919,4.746,22.216,75.3,9.028.185.772-8.137,3.924-41.383-32.079-113.524-88.688,134.33,34.213,2.4Zm14.877-37.6,3.438,26.1-15.336-4.023Z" transform="translate(-1131.69 -187.16)" fill="#ffcb05"/>
    </g>
    <g transform="matrix(1, 0, 0, 1, 1243.28, 201.21)" filter="url(#Trazado_37)">
      <path id="Trazado_37-2" data-name="Trazado 37" d="M1742.663,309.072l-11.9,22.075,15.336,4.024Z" transform="translate(-1116.46 -177.45)" fill="#3567b0"/>
    </g>
    <g transform="matrix(1, 0, 0, 1, 1243.28, 201.21)" filter="url(#Trazado_38)">
      <path id="Trazado_38-2" data-name="Trazado 38" d="M1823.411,269.551l-47.086,12.035-.443,16.645,11.556-.862-12.627,133.178,34.6,3.154Z" transform="translate(-1104.41 -188.26)" fill="#ffcb05"/>
    </g>
    <g transform="matrix(1, 0, 0, 1, 1243.28, 201.21)" filter="url(#Trazado_39)">
      <path id="Trazado_39-2" data-name="Trazado 39" d="M1827.218,285.45l-1.636,16.206,11.572-.6-15.606,132.862,34.519,3.928,17.674-163.8Z" transform="translate(-1091.62 -187.03)" fill="#ffcb05"/>
    </g>
    <g transform="matrix(1, 0, 0, 1, 1243.28, 201.21)" filter="url(#Trazado_40)">
      <path id="Trazado_40-2" data-name="Trazado 40" d="M2022.979,278.334l-46.523,11.4-4.659,1.141.641-7.508,1.219-14.289-13.894,3.551-47.086,12.035-7.457,1.907-.205,7.694-.443,16.646-.3,11.27,10.757-.8-4.9,51.717-24.933-88.237-6.05-21.41-12.259,18.566-32.415,49.1-6.391-49-1.094-8.392-8.45-.464-26.078-1.433-8.773-.481-1.767,8.607-.809,3.938-.974-6.708-8.712-.1-40.35-.471-8.709-.1-1.374,8.1a53.913,53.913,0,0,0-15.6-9.436,61.008,61.008,0,0,0-7.135-2.327l.474-.092,14.91-2.886-8.323-12.7-17.7-27.014-5.2-7.936-8.285,4.622-40.919,22.825-9.479,5.287.052.079-8.752-6.706-10.388-7.96-5.17,12.023-5.851,13.609-1.978-12.227-2.135-13.2-12.158,5.556-10.5,4.8-9.636-8.316a94.084,94.084,0,0,0-13.656-9.932,70.406,70.406,0,0,0-13.309-6.167,57.071,57.071,0,0,0-12.415-2.746c-1.729-.167-3.462-.252-5.148-.252a49.132,49.132,0,0,0-6.266.4c-.831.106-1.93.292-3.449.585l-.064.013-.062.014a45.851,45.851,0,0,0-17.193,7.383,55.294,55.294,0,0,0-11.95,11.274,63.743,63.743,0,0,0-7.092,11.273c-1.922,4.048-2.882,6.918-3.118,9.31l-1.062,10.8,10.529-2.645,14.651-3.68,3.059-.769,1.626-2.7a44.05,44.05,0,0,1,2.773-3.771,36.779,36.779,0,0,1,5.888-5.587,21.8,21.8,0,0,1,7.884-3.98,20.977,20.977,0,0,1,2.27-.478,15.537,15.537,0,0,1,1.979-.125,21.224,21.224,0,0,1,6.5,1.125,36.184,36.184,0,0,1,10.8,6.2l2.835,2.228,3.521-.772,17.111-3.746,4.218-.923-19,8.684-8.16,3.728,2.666,8.566,3.312,10.64,2.91,9.354,8.929-2.4,1.1,12.432a56.188,56.188,0,0,0-5.517-1.377,53.464,53.464,0,0,0-9.911-.92c-1.447,0-2.923.057-4.389.171a53.971,53.971,0,0,0-24.066,7.953,79.648,79.648,0,0,0-20.358,18.461,42.985,42.985,0,0,0-3.174-4.16,35.1,35.1,0,0,0-13.576-9.621,64.366,64.366,0,0,0-14.336-4.116,53.034,53.034,0,0,0-8.113-.622,56.138,56.138,0,0,0-6.205.349,53.97,53.97,0,0,0-23.789,8.75,79.659,79.659,0,0,0-19.745,19.146c-7.815,10.425-10.94,23.263-9.283,38.146a65.337,65.337,0,0,0,6.133,21.382l-35.741,3.6-25.368-123.259-2.884-14.012-12.3,7.307-42.745,25.392-7.172,4.26,2.761,7.871,5.543,15.808,3.477,9.915,9.349-3.6,24.045,119.3,1.819,9.02,9.158-.893,111.825-10.9,10.467-1.02-1.35-10.428-1.6-12.336a54.572,54.572,0,0,0,10.887-2.973,60.651,60.651,0,0,0,13.036-7.111,66.551,66.551,0,0,0,12.19-11.348,75.865,75.865,0,0,0,5.377-7.191,45.663,45.663,0,0,0,12.279,13.232l.088.061.089.061a43.883,43.883,0,0,0,13.554,5.972,47.4,47.4,0,0,0,11.981,1.525c1.294,0,2.616-.052,3.928-.154a53.886,53.886,0,0,0,13.622-2.9,60.654,60.654,0,0,0,13.265-6.673,59.877,59.877,0,0,0,5.417-4.05l1.617,18.3.874,9.871,9.891-.6,36.549-2.21,10.5-.634-.971-10.476-1.812-19.562,65.414,32.1,16.481,8.088-1.856-18.264-3.123-30.739-.562-5.524-4.946-2.523-14.2-7.243a97.083,97.083,0,0,0,17.549-2.4,83.31,83.31,0,0,0,17.25-5.9l-6.972,41.128-2,11.818,11.987.073,46.359.281,8.627.052,1.474-8.5,1.607-9.281,5.162,11.584,4.934-8.14.9,9.531-1.031,1.563-9.612,14.559,12.251.858.139,1.467,7.582,1.388,47.117,8.628,13.746,2.518-1.807-13.857-3.35-25.687,14.942-23.91,4.144,1.163,20.621,69.9,2.11,7.151,7.455.153,27.824.568,13.755.281-1.7-6,13.938,1.27,10.207.931.871-10.211,10.324-121.035,8.53-.444-14.2,120.869-1.192,10.156,10.16,1.156,34.519,3.928,10.183,1.159,1.1-10.189,17.674-163.8,1.559-14.448ZM1471.09,264.51a23.985,23.985,0,0,1,2.415-6.776,55.926,55.926,0,0,1,6.247-9.9,47.462,47.462,0,0,1,10.31-9.7,38.094,38.094,0,0,1,14.35-6.141q1.953-.376,2.979-.511a41.3,41.3,0,0,1,5.287-.334q2.174,0,4.413.218a49.2,49.2,0,0,1,10.739,2.391,62.448,62.448,0,0,1,11.853,5.5,86.112,86.112,0,0,1,12.532,9.127L1535.1,252.14a43.446,43.446,0,0,0-13.163-7.457,28.723,28.723,0,0,0-8.859-1.5,23.155,23.155,0,0,0-2.957.187,28.769,28.769,0,0,0-3.249.67,29.6,29.6,0,0,0-10.686,5.387,43.947,43.947,0,0,0-7.141,6.851,52.432,52.432,0,0,0-3.308,4.548Zm366.418,168.715-9.083-1.663,1.128-1.8,6.208-9.933Zm-51.936-59.579-10.8,17.813-10.865-24.382-7.324,42.274-46.359-.28,8.511-50.211a27.26,27.26,0,0,0,7.744-10.565l1.556-4-2.612-3.411-2.98-3.891,8.508-50.194,40.351.471,8.087,55.67L1791.9,282l26.077,1.433,7.913,60.683-37.707,57.112Zm-77.233-16.686a70.273,70.273,0,0,1-20.153,7.736,88.157,88.157,0,0,1-19.848,2.3q-1.609,0-3.213-.061a56.4,56.4,0,0,1-18-3.38,25.528,25.528,0,0,1-11.948-8.614q-7.1-9.659-6.541-24.263a64.317,64.317,0,0,1,5.055-22.552q4.614-11.023,9.472-15.3a57,57,0,0,1,12.519-8.374,58.678,58.678,0,0,1,26.071-6.043q1.179,0,2.365.046a55.272,55.272,0,0,1,18.443,3.82,45.711,45.711,0,0,1,15.066,9.617l-44.113,48.734c.339.013.675.019,1.011.019a24.85,24.85,0,0,0,9.723-1.958,31.462,31.462,0,0,0,9.517-6.334,49.386,49.386,0,0,0,7.919-9.9l17.67,23.072Q1716.883,351.9,1708.339,356.96Zm-186.078,50.592a37.015,37.015,0,0,1-9.4-1.193,33.611,33.611,0,0,1-10.422-4.552,37.53,37.53,0,0,1-11.846-14.471,54.67,54.67,0,0,1-5.416-20.061q-1.435-18.478,8.342-30.656a69.274,69.274,0,0,1,17.724-16.15,43.693,43.693,0,0,1,19.553-6.494q1.815-.141,3.6-.141a43.018,43.018,0,0,1,8.019.744,54.039,54.039,0,0,1,11.952,3.893,24.894,24.894,0,0,1,9.467,7.172,34.442,34.442,0,0,1,5.847,10.732,52.094,52.094,0,0,1,2.57,12.722,63.362,63.362,0,0,1-.053,10.727,56.779,56.779,0,0,1-1.685,9.62,31.275,31.275,0,0,1-3.038,7.564,72.686,72.686,0,0,1-9.388,13.227,56.179,56.179,0,0,1-10.618,9.272,50.227,50.227,0,0,1-11.026,5.562,43.44,43.44,0,0,1-11.041,2.361Q1523.815,407.553,1522.261,407.552Zm-61.448-.437a50.24,50.24,0,0,1-10.832,5.925,43.5,43.5,0,0,1-10.956,2.729,40.091,40.091,0,0,1-4.425.248,36.76,36.76,0,0,1-8.146-.9,33.586,33.586,0,0,1-10.566-4.2,37.521,37.521,0,0,1-12.323-14.068,54.7,54.7,0,0,1-6.08-19.869q-2.052-18.422,7.317-30.919a69.239,69.239,0,0,1,17.175-16.73,43.7,43.7,0,0,1,19.326-7.143,46.007,46.007,0,0,1,5.077-.285,42.747,42.747,0,0,1,6.555.5,54.085,54.085,0,0,1,12.074,3.494,24.89,24.89,0,0,1,9.7,6.852,33.542,33.542,0,0,1,4.789,7.292c-3.781,8.175-5.294,17.556-4.482,28.026A65.859,65.859,0,0,0,1478.938,386a70.93,70.93,0,0,1-7.819,11.5A56.139,56.139,0,0,1,1460.813,407.115ZM1322.4,281.882l27.221,132.265,49.752-5.016a44.72,44.72,0,0,0,10.9,10.291l.088.057.09.057a43.881,43.881,0,0,0,13.745,5.517,46.859,46.859,0,0,0,8.383,1.1l1.684,13.005-111.826,10.9-26.431-131.138-10.812,4.167-5.544-15.808ZM1603.321,381.5l3.487,37.652-36.549,2.21-2.381-26.917a85.9,85.9,0,0,0,8.437-12.372,41.615,41.615,0,0,0,4.027-9.955,67.115,67.115,0,0,0,2-11.347,73.658,73.658,0,0,0,.066-12.461,62.461,62.461,0,0,0-3.077-15.2,44.75,44.75,0,0,0-7.582-13.879,34.963,34.963,0,0,0-11.33-9.157l-2.614-29.547-11.191,3-3.312-10.64,38.283-17.493,7.568,46.787,19.679-45.77,27.351,20.958-43.209,68.116,88.949,45.376,3.123,30.739Zm75.767-145.76,17.7,27.014-49.73,9.625-8.89-13.815Zm-55.27,114.044-16.248-8.289,15.076-23.767A70.851,70.851,0,0,0,1621,330.387,49.959,49.959,0,0,0,1623.817,349.78Zm94.052-46.766-3.887,22.927-6.228-8.132-1.5-1.961Zm103.043,121.342-34.213-2.4,88.688-134.33,32.079,113.524-3.924,41.383-.772,8.137-9.028-.185-22.216-75.3-16.919-4.746Zm92.774,19.143,12.627-133.178-11.557.862.443-16.645,47.086-12.034-14,164.15Zm59.526,4.6,15.606-132.862-11.572.6,1.635-16.207,46.523-11.4-17.674,163.795Z" transform="translate(-1243.28 -201.21)" fill="#3567b0"/>
    </g>
    <g transform="matrix(1, 0, 0, 1, 1243.28, 201.21)" filter="url(#Trazado_41)">
      <path id="Trazado_41-2" data-name="Trazado 41" d="M1500.693,379.822a56.178,56.178,0,0,0,10.618-9.272,72.687,72.687,0,0,0,9.388-13.227,31.271,31.271,0,0,0,3.038-7.564,56.766,56.766,0,0,0,1.685-9.62,63.387,63.387,0,0,0,.053-10.726,52.1,52.1,0,0,0-2.57-12.722,34.445,34.445,0,0,0-5.847-10.732,24.894,24.894,0,0,0-9.467-7.172,54.044,54.044,0,0,0-11.952-3.893,43.02,43.02,0,0,0-8.019-.744q-1.784,0-3.6.141a43.692,43.692,0,0,0-19.553,6.494,69.277,69.277,0,0,0-17.724,16.15q-9.777,12.177-8.342,30.656a54.67,54.67,0,0,0,5.415,20.061,37.531,37.531,0,0,0,11.846,14.471,33.611,33.611,0,0,0,10.422,4.552,37.016,37.016,0,0,0,9.4,1.193q1.555,0,3.138-.124a43.438,43.438,0,0,0,11.041-2.361A50.229,50.229,0,0,0,1500.693,379.822Zm-12.836-35.039a22.939,22.939,0,0,1-10.721-3.054q-6.923-3.7-7.476-10.836a16.083,16.083,0,0,1,1.44-7.788,25.04,25.04,0,0,1,4.875-7.244,27.539,27.539,0,0,1,7.707-5.573,25.816,25.816,0,0,1,9.627-2.677,15.47,15.47,0,0,0-6.977,6.019,12.362,12.362,0,0,0-1.8,7.159q.357,4.6,2.8,6.264a6.369,6.369,0,0,0,3.17.811c.195,0,.394-.009.594-.024q4.142-.321,8.128-5.1a21.171,21.171,0,0,0,4.839-10.714,25.692,25.692,0,0,1,1.467,6.983,31.132,31.132,0,0,1-1.344,11.483,23.326,23.326,0,0,1-5.716,9.855,14.392,14.392,0,0,1-9.379,4.393Q1488.482,344.782,1487.857,344.783Z" transform="translate(-1196.51 -181.53)" fill="#ffcb05"/>
    </g>
    <g transform="matrix(1, 0, 0, 1, 1243.28, 201.21)" filter="url(#Trazado_42)">
      <path id="Trazado_42-2" data-name="Trazado 42" d="M1497.445,327.595a31.132,31.132,0,0,0,1.344-11.483,25.692,25.692,0,0,0-1.467-6.983,21.171,21.171,0,0,1-4.839,10.714q-3.987,4.784-8.128,5.1c-.2.015-.4.024-.594.024a6.369,6.369,0,0,1-3.17-.811q-2.444-1.662-2.8-6.264a12.362,12.362,0,0,1,1.8-7.159,15.47,15.47,0,0,1,6.977-6.019,25.816,25.816,0,0,0-9.627,2.677,27.539,27.539,0,0,0-7.707,5.573,25.04,25.04,0,0,0-4.875,7.244,16.083,16.083,0,0,0-1.44,7.788q.554,7.13,7.476,10.836a22.939,22.939,0,0,0,10.721,3.054q.625,0,1.238-.048a14.392,14.392,0,0,0,9.379-4.393A23.326,23.326,0,0,0,1497.445,327.595Z" transform="translate(-1189.76 -178.64)" fill="#3567b0"/>
    </g>
    <g transform="matrix(1, 0, 0, 1, 1243.28, 201.21)" filter="url(#Trazado_43)">
      <path id="Trazado_43-2" data-name="Trazado 43" d="M1641.732,333.454l-17.67-23.072a49.386,49.386,0,0,1-7.92,9.9,31.458,31.458,0,0,1-9.517,6.334,24.849,24.849,0,0,1-9.723,1.958c-.336,0-.673-.006-1.011-.019L1640,279.818a45.711,45.711,0,0,0-15.066-9.617,55.273,55.273,0,0,0-18.443-3.82q-1.187-.046-2.365-.046a58.679,58.679,0,0,0-26.071,6.043,56.988,56.988,0,0,0-12.518,8.374q-4.86,4.279-9.472,15.3a64.327,64.327,0,0,0-5.055,22.552q-.556,14.6,6.541,24.263a25.528,25.528,0,0,0,11.948,8.614,56.4,56.4,0,0,0,18,3.38q1.607.061,3.213.061a88.161,88.161,0,0,0,19.848-2.3,70.277,70.277,0,0,0,20.153-7.736Q1639.257,339.825,1641.732,333.454ZM1582.2,325.7s-14.01-17.831-1.274-34.388a18.723,18.723,0,0,1,12.119-4.509c9.477,0,17.175,7.056,17.175,7.056Z" transform="translate(-1165.66 -189.14)" fill="#ffcb05"/>
    </g>
    <g transform="matrix(1, 0, 0, 1, 1243.28, 201.21)" filter="url(#Trazado_44)">
      <path id="Trazado_44-2" data-name="Trazado 44" d="M1587.758,282.4a18.723,18.723,0,0,0-12.119,4.509c-12.736,16.557,1.274,34.388,1.274,34.388l28.02-31.841S1597.235,282.4,1587.758,282.4Zm5.478,8.78-14.542,16.524a17.965,17.965,0,0,1,2.47-15.411,10.921,10.921,0,0,1,6.595-2.252A15.088,15.088,0,0,1,1593.235,291.185Z" transform="translate(-1160.37 -184.75)" fill="#3567b0"/>
    </g>
    <g transform="matrix(1, 0, 0, 1, 1243.28, 201.21)" filter="url(#Trazado_45)">
      <path id="Trazado_45-2" data-name="Trazado 45" d="M1617.107,259.845l-17.7-27.014-40.919,22.825,8.891,13.815Z" transform="translate(-1163.6 -198.31)" fill="#ffcb05"/>
    </g>
  </g>
</svg>
