<svg xmlns="http://www.w3.org/2000/svg" width="15.11" height="15.11" viewBox="0 0 15.11 15.11">
  <path id="poison" d="M10.736,15.11a1.866,1.866,0,0,1-1.591-1.067,1.864,1.864,0,0,1-1.59,1.067,1.937,1.937,0,0,1-1.69-1.262,1.938,1.938,0,0,1-1.69,1.262c-1.1,0-1.988-1.2-1.988-2.667a3.5,3.5,0,0,1,.134-.966A6.264,6.264,0,0,1,0,6.668C0,2.991,3.389,0,7.554,0S15.11,2.991,15.11,6.668a6.359,6.359,0,0,1-2.485,4.943,3.479,3.479,0,0,1,.1.831C12.724,13.913,11.832,15.11,10.736,15.11ZM7.456,3.415c-2.467,0-4.474,1.519-4.474,3.385s2.007,3.385,4.474,3.385S11.929,8.667,11.929,6.8,9.922,3.415,7.456,3.415Z" fill="#fff"/>
</svg>
