<svg xmlns="http://www.w3.org/2000/svg" width="32.59" height="32.292" viewBox="0 0 32.59 32.292">
  <g id="Grupo_158" data-name="Grupo 158" transform="translate(-2891 -396.326)">
    <g id="Grupo_135" data-name="Grupo 135" transform="translate(1614.006 -166.516)">
      <path id="Trazado_97" data-name="Trazado 97" d="M1309.268,566.112c-.008.071-.017.132-.022.194-.015.177-.022.354-.044.529a.479.479,0,0,1-.325.444c-.154.05-.238-.007-.216-.17s.077-.321.107-.483a2.662,2.662,0,0,0,.024-.31.632.632,0,0,0-.412.426,10.773,10.773,0,0,1-.533,1.229,6.2,6.2,0,0,1-.615.8l-.037-.031a3.12,3.12,0,0,0,.144-.52,1.108,1.108,0,0,1,.288-.667,1.765,1.765,0,0,0,.411-.792.873.873,0,0,1,.164-.275c.153-.205.32-.4.469-.6a.3.3,0,0,0-.014-.387.541.541,0,0,1-.038-.043.453.453,0,0,1,.076-.635c.106-.118.236-.213.346-.328a.434.434,0,0,0,.061-.159.884.884,0,0,0-.184-.046c-.034,0-.069.042-.106.059a2,2,0,0,1-.351.153c-.117.03-.168.076-.168.2a.337.337,0,0,1-.17.35,1.673,1.673,0,0,1-.066-.262,2.975,2.975,0,0,1-.007-.5.853.853,0,0,0-.356-.785.777.777,0,0,1-.314-.453,1.013,1.013,0,0,0-.1-.207c-.075.249-.124.433.019.633a2.6,2.6,0,0,1,.241.45.255.255,0,0,1,.022.043.253.253,0,0,1-.146.327.442.442,0,0,0-.217.512,3.585,3.585,0,0,1,.023.528.156.156,0,0,1-.043.109c-.161.148-.327.294-.5.448,0-.062-.006-.119-.014-.176-.034-.245-.059-.492-.109-.733a.474.474,0,0,0-.31-.383.662.662,0,0,1-.448-.542.986.986,0,0,0-.875-.722.3.3,0,0,0,.027.374c.138.2.288.384.431.584a2.821,2.821,0,0,1,.525,1.992,7.376,7.376,0,0,1-.849,2.666,9.219,9.219,0,0,1-1.351,1.827,1.8,1.8,0,0,0-.338-.535c-.314-.311-.6-.651-.925-.951a13.179,13.179,0,0,0-8.74-3.636,12.622,12.622,0,0,0-3.507.362,13.261,13.261,0,0,0-6.872,4.126c-.174.194-.461.367-.549.521a8.038,8.038,0,0,1-2.031-3.99,2.942,2.942,0,0,1,.4-2.291c.153-.224.33-.432.479-.658a.7.7,0,0,0,.085-.3c.012-.093-.043-.127-.135-.093-.379.14-.731.3-.8.775a.634.634,0,0,1-.4.48.8.8,0,0,0-.305.318,1.205,1.205,0,0,0-.1.409c-.027.189-.036.381-.052.57-.167-.151-.329-.294-.487-.442a.166.166,0,0,1-.05-.107,2.593,2.593,0,0,1,.016-.529.443.443,0,0,0-.224-.525l-.027-.014a.252.252,0,0,1-.093-.344,5.3,5.3,0,0,1,.266-.5.419.419,0,1,0-.093-.423.857.857,0,0,1-.35.51.825.825,0,0,0-.328.778,1.779,1.779,0,0,1,0,.371c-.01.12-.041.237-.062.356l-.116.051c-.035-.123-.068-.247-.105-.37-.015-.051-.027-.125-.063-.144a4.92,4.92,0,0,0-.541-.24c-.05-.018-.123.023-.185.037a.473.473,0,0,0,.064.171c.1.114.234.2.334.314.012.01.024.021.036.033a.472.472,0,0,1,0,.667.263.263,0,0,0-.021.339c.164.218.338.425.5.641a1.584,1.584,0,0,1,.154.265,2.076,2.076,0,0,0,.307.646c.4.376.332.908.522,1.356a4.856,4.856,0,0,1-.7-.885,9.137,9.137,0,0,1-.479-1.138.606.606,0,0,0-.42-.421c.02.146.033.263.052.38.025.15.061.3.078.45.014.128-.064.168-.179.137a.441.441,0,0,1-.337-.372c-.027-.139-.032-.282-.048-.422-.014-.121-.029-.245-.048-.4a.779.779,0,0,0-.264.828,4.851,4.851,0,0,1,.137,1.614.872.872,0,0,0,.545.869.484.484,0,0,1,.4.391c-.072.02-.142.046-.215.059-.166.031-.35-.011-.521.114.162.071.3.126.436.2.087.05.177.133.093.244a3.188,3.188,0,0,1-.352.4.408.408,0,0,0-.1.133.423.423,0,0,0,.19.567.694.694,0,0,1,.443.7c.009.217.055.281.276.31.187.025.377.024.565.039.043,0,.12.023.12.043a.2.2,0,0,1-.041.141.231.231,0,0,1-.129.083,1.021,1.021,0,0,0-.6.375l0,0a.338.338,0,0,1-.475.057c-.076-.043-.146-.1-.223-.143-.147-.082-.241-.03-.212.136a.818.818,0,0,0,.159.383,3.9,3.9,0,0,0,.46.41,2.244,2.244,0,0,1,.305.264c.136.171.1.252-.111.3-.169.038-.341.054-.552.085a.825.825,0,0,0,.161.144,1.956,1.956,0,0,0,.857.226c.743-.019,1.485-.031,2.227-.031h.006a.366.366,0,0,1,.394.336c.017.156-.1.283-.315.349a1.107,1.107,0,0,1-.8-.11c-.189-.084-.372-.181-.563-.258a.785.785,0,0,0-.232-.016.842.842,0,0,0,.05.259.993.993,0,0,0,.2.224,2.037,2.037,0,0,1,.265.259.888.888,0,0,1,.156.375.723.723,0,0,0,.047.212c-.008.612-.081,2.465-.06,3.069a12.35,12.35,0,0,0,.645,3.431c.016.053.03.1.044.153a12.324,12.324,0,0,1-1.9-4.328l-.065.026c.044.564.074,1.135.144,1.7a12.047,12.047,0,0,0,1.932,5.232,13.718,13.718,0,0,0,5.8,4.886,3.626,3.626,0,0,0,.949.278.757.757,0,0,0,.011.078c.028.141.1.181.237.164.042-.005.087.034.132.041a.866.866,0,0,0,.29.029c.133-.026.208,0,.252.132.16.493.334.976.485,1.476.082.265.2.462.5.5a.282.282,0,0,1,.168.142c.113.207.2.427.312.633a.443.443,0,0,0,.6.085c.147-.133.271-.106.347.078a1.021,1.021,0,0,0,.571.6l.037.013a.527.527,0,0,0,.663-.342c-.126,0-.247.011-.367,0a.356.356,0,0,1-.057,0,.372.372,0,0,1-.317-.42c0-.076.029-.2.073-.215.064-.022.156.032.236.059a1.614,1.614,0,0,0,.336.122c.317.034.635.048.953.065a2.051,2.051,0,0,0,1.042-.131q.738-.36,1.469-.739a.274.274,0,0,0,.135-.168c.081-.438.165-.876.237-1.315a4.622,4.622,0,0,0,.981-.1,15.349,15.349,0,0,0,5.555-2.481,12.8,12.8,0,0,0,4.442-5.49,12.49,12.49,0,0,0,.927-3.819c.031-.362.035-.727.052-1.09l-.053-.012a12.487,12.487,0,0,1-1.884,4.31,21.275,21.275,0,0,0,.586-6.649.543.543,0,0,0,.06-.266.716.716,0,0,1,.176-.383c.116-.149.283-.255.4-.4a.809.809,0,0,0,.089-.3,1.008,1.008,0,0,0-.279.026c-.252.1-.492.225-.745.325a.817.817,0,0,1-.687-.019.293.293,0,0,1-.2-.335c.036-.159.114-.3.3-.3.513-.013,1.025-.019,1.538-.029a3.368,3.368,0,0,0,1.36-.05.738.738,0,0,0,.415-.265c-.209-.034-.4-.064-.588-.1-.124-.024-.16-.109-.093-.209a1.47,1.47,0,0,1,.248-.268,5.121,5.121,0,0,0,.491-.4,1.3,1.3,0,0,0,.218-.43c.019-.057-.025-.134-.04-.2a1.038,1.038,0,0,0-.2.049c-.074.032-.137.092-.209.132a.333.333,0,0,1-.45-.06,1.04,1.04,0,0,0-.632-.39.118.118,0,0,1-.076-.041,1.6,1.6,0,0,1-.081-.166.653.653,0,0,1,.153-.056c.182-.018.366-.015.546-.041.218-.032.27-.1.277-.316a.669.669,0,0,1,.429-.684l.019-.009a.413.413,0,0,0,.173-.559,2.667,2.667,0,0,0-.387-.462c-.107-.106-.127-.2,0-.289a2.368,2.368,0,0,1,.315-.156l.13-.059v-.068l-.7-.079c-.037-.212.095-.306.253-.377a.9.9,0,0,0,.66-1.047,5.726,5.726,0,0,1,.156-1.526A.663.663,0,0,0,1309.268,566.112Z" fill="#ffcb05"/>
      <g id="Grupo_135-2" data-name="Grupo 135" transform="translate(1276.994 562.842)">
        <path id="Trazado_15" data-name="Trazado 15" d="M1278.484,565.016c.021-.119.052-.236.062-.356a1.777,1.777,0,0,0,0-.371.826.826,0,0,1,.328-.778.857.857,0,0,0,.35-.51.419.419,0,1,1,.093.423,5.3,5.3,0,0,0-.266.5.252.252,0,0,0,.093.344l.027.014a.441.441,0,0,1,.223.525,2.591,2.591,0,0,0-.015.529.169.169,0,0,0,.049.107c.159.148.32.291.488.442.016-.189.025-.381.052-.57a1.2,1.2,0,0,1,.1-.409.791.791,0,0,1,.305-.318.63.63,0,0,0,.4-.48c.069-.472.421-.635.8-.775.092-.034.147,0,.135.093a.688.688,0,0,1-.085.3c-.149.226-.326.434-.479.658a2.937,2.937,0,0,0-.4,2.29,8.05,8.05,0,0,0,2.083,4.052,30.225,30.225,0,0,0,4.43,3.793c1.579,1.153,3.253,2.162,4.907,3.2a1.072,1.072,0,0,0,.115.052.415.415,0,0,0-.023-.428,1.6,1.6,0,0,1-.209-.971,1.223,1.223,0,0,1,.16-.473.466.466,0,0,0-.062-.633,2.772,2.772,0,0,1-.729-1.256,6.524,6.524,0,0,1-.256-1.763.2.2,0,0,1,.154-.237h0a1.11,1.11,0,0,0,.221-.11.66.66,0,0,0,.422-.614,6.464,6.464,0,0,1,.078-.649.185.185,0,0,1,.156-.181,3.072,3.072,0,0,0,.447-.165.954.954,0,0,0,.6-.944c-.014-.464-.082-.926-.114-1.39a3.927,3.927,0,0,1-.008-.789.379.379,0,0,1,.4-.361.366.366,0,0,1,.174.051.842.842,0,0,0-.1.8.937.937,0,0,0,.253.537c.08-.186.169-.343.4-.342a1.639,1.639,0,0,1,.034.207c.018.359.034.719.046,1.078a.665.665,0,0,0,.29.575.27.27,0,0,1,.1.17,3.373,3.373,0,0,1-.026,1.07,9.031,9.031,0,0,0-.077,1.337c0,.1.1.2.157.294l.057-.012c.017-.046.031-.092.05-.137.065-.157.125-.317.2-.469.025-.049.1-.074.146-.11a.809.809,0,0,1,.083.166,1.8,1.8,0,0,1,.013.193,6.424,6.424,0,0,0,.139.814,1.12,1.12,0,0,1-.081.937c-.083.143-.148.3-.23.439a1.025,1.025,0,0,1-.917.565.462.462,0,0,1-.428-.282c.021-.016.031-.029.038-.028.358.062.45-.118.465-.432a1.6,1.6,0,0,0-.344-.974,1.959,1.959,0,0,0-.09.23,2.181,2.181,0,0,1-.051.3c-.03.078-.1.2-.155.2a.284.284,0,0,1-.234-.133,1.383,1.383,0,0,1-.088-.563,3.206,3.206,0,0,1,.214-.761,2.567,2.567,0,0,0,.151-1.421c-.075.115-.132.2-.187.287a.611.611,0,0,1-.42.323.256.256,0,0,0-.153.149c-.082.238-.149.482-.216.725-.025.091.013.207-.124.245-.018.005-.033.073-.027.108.073.458.126.922.234,1.372a1.263,1.263,0,0,0,.754.864c.1.046.2.1.3.144a1.2,1.2,0,0,1,.715,1.407,3.111,3.111,0,0,1-.166.517,2.137,2.137,0,0,0-.088.322.228.228,0,0,0,.055.172c.02.02.111-.01.156-.039.249-.158.494-.323.741-.484,1.072-.7,2.155-1.383,3.213-2.1a32.42,32.42,0,0,0,4.809-3.893,9.168,9.168,0,0,0,1.758-2.274,7.371,7.371,0,0,0,.849-2.665,2.82,2.82,0,0,0-.525-1.991c-.143-.2-.293-.385-.431-.584a.3.3,0,0,1-.027-.374.986.986,0,0,1,.875.722.663.663,0,0,0,.448.542.474.474,0,0,1,.31.383c.05.241.075.488.109.733.008.057.01.114.014.176.173-.154.339-.3.5-.448a.156.156,0,0,0,.043-.109,3.583,3.583,0,0,0-.023-.528.442.442,0,0,1,.217-.512.253.253,0,0,0,.146-.327.255.255,0,0,0-.022-.043,2.6,2.6,0,0,0-.241-.45c-.143-.2-.094-.384-.019-.633a1.013,1.013,0,0,1,.1.207.776.776,0,0,0,.314.453.852.852,0,0,1,.356.785,2.973,2.973,0,0,0,.007.5,1.672,1.672,0,0,0,.066.262.337.337,0,0,0,.17-.35c0-.124.051-.17.168-.2a2,2,0,0,0,.351-.153c.037-.017.072-.06.106-.059a.888.888,0,0,1,.184.046.442.442,0,0,1-.061.159c-.11.115-.24.21-.346.328a.453.453,0,0,0-.076.635.541.541,0,0,0,.038.043.3.3,0,0,1,.013.387c-.148.2-.315.4-.468.6a.873.873,0,0,0-.164.275,1.764,1.764,0,0,1-.411.792,1.107,1.107,0,0,0-.288.667,3.117,3.117,0,0,1-.144.52l.037.031a6.2,6.2,0,0,0,.615-.8,10.772,10.772,0,0,0,.533-1.229.632.632,0,0,1,.412-.426,2.66,2.66,0,0,1-.024.31c-.03.162-.085.32-.107.483s.062.22.216.17a.479.479,0,0,0,.325-.444c.022-.175.029-.352.044-.529.005-.062.014-.123.022-.194a.663.663,0,0,1,.284.766,5.723,5.723,0,0,0-.156,1.526.9.9,0,0,1-.66,1.047c-.158.071-.29.165-.253.377l.7.079v.068l-.13.059a2.36,2.36,0,0,0-.315.156c-.127.088-.107.183,0,.289a2.668,2.668,0,0,1,.387.462.413.413,0,0,1-.174.559l-.018.009a.671.671,0,0,0-.43.684c-.006.216-.058.284-.276.316-.18.026-.364.023-.546.041a.656.656,0,0,0-.153.056,1.7,1.7,0,0,0,.081.166.118.118,0,0,0,.076.041,1.04,1.04,0,0,1,.632.39.333.333,0,0,0,.45.06c.072-.04.135-.1.209-.132a1.033,1.033,0,0,1,.2-.049c.015.066.059.143.04.2a1.3,1.3,0,0,1-.218.43,5.111,5.111,0,0,1-.491.4,1.468,1.468,0,0,0-.248.268c-.067.1-.031.185.093.209.189.036.379.066.588.1a.738.738,0,0,1-.415.265,3.369,3.369,0,0,1-1.36.05c-.513.01-1.025.016-1.538.029-.186,0-.264.141-.3.3a.293.293,0,0,0,.2.335.817.817,0,0,0,.687.019c.252-.1.493-.226.745-.325a1.01,1.01,0,0,1,.279-.026.809.809,0,0,1-.089.3c-.117.145-.284.251-.4.4a.716.716,0,0,0-.176.383c-.006.287-.075.41-.444.443-.283.025-.293.032-.308.326a1.671,1.671,0,0,1-.014.265.133.133,0,0,1-.057.1c-.027.012-.076-.02-.1-.044-.065-.054-.129-.167-.185-.162a.6.6,0,0,0-.357.131c-.25.255-.482.167-.748.035a3.188,3.188,0,0,0-2.086-.242.659.659,0,0,0-.628.691v.015c.008.272.238.415.446.245a.806.806,0,0,1,.97-.042c.208.1.413.217.619.326l-.012.058c-.117.015-.235.031-.352.044a1.9,1.9,0,0,0-1.517.882,1.925,1.925,0,0,0-.144.223.64.64,0,0,1-.727.363,1.667,1.667,0,0,0-1.164.255.231.231,0,0,0-.082.3c.018.042.145.058.219.053a6.346,6.346,0,0,1,.645-.069.5.5,0,0,1,.484.516.457.457,0,0,1-.005.053.16.16,0,0,1-.1.111,1.876,1.876,0,0,1-.315.039c-.144.01-.224.066-.187.225a.656.656,0,0,1,.008.159c-.014.325-.125.444-.451.427a.413.413,0,0,0-.447.285,1.117,1.117,0,0,1-1.507.474l-.043-.024a2.894,2.894,0,0,0-.288-.135c-.183-.069-.225-.042-.26.148h-.261c-.2.008-.37.055-.429.289-.013.053-.106.1-.172.124a1,1,0,0,1-.765-.125,1.37,1.37,0,0,0-1.4.014c-.062.035-.125.067-.19.1a2.14,2.14,0,0,1-1.846,0c-.075-.034-.149-.072-.221-.111a1.358,1.358,0,0,0-1.354,0,1.07,1.07,0,0,1-.748.141c-.107-.023-.2-.056-.225-.187-.039-.17-.185-.219-.339-.233-.1-.009-.211,0-.316,0-.073-.2-.108-.215-.306-.142a5.13,5.13,0,0,1-.693.254,1.038,1.038,0,0,1-1.1-.56.429.429,0,0,0-.47-.3c-.308.02-.424-.113-.432-.424-.008-.352-.008-.352-.367-.4-.246-.034-.267-.066-.206-.3a.53.53,0,0,1,.612-.415,3.97,3.97,0,0,1,.486.09c.1.021.2.06.237-.066a.24.24,0,0,0-.091-.292,1.752,1.752,0,0,0-1.162-.266,1.248,1.248,0,0,1-.351-.014.565.565,0,0,1-.266-.179c-.122-.15-.218-.322-.328-.483a1.884,1.884,0,0,0-1.408-.782c-.132-.017-.266-.03-.442-.049a1.79,1.79,0,0,1,.181-.133c.216-.111.428-.226.651-.322a.679.679,0,0,1,.747.082.392.392,0,0,0,.35.053.432.432,0,0,0,.14-.328.576.576,0,0,0-.48-.6,3.17,3.17,0,0,0-2.208.185c-.054.025-.108.049-.159.077a.392.392,0,0,1-.529-.045.92.92,0,0,0-.261-.146c-.134-.064-.256-.087-.336.088-.019.041-.092.058-.14.086a.637.637,0,0,1-.049-.141c-.017-.134-.026-.269-.039-.4a.141.141,0,0,0-.137-.145l-.028,0a1.045,1.045,0,0,1-.194-.01c-.276-.042-.333-.129-.36-.406a.888.888,0,0,0-.156-.375,2.036,2.036,0,0,0-.265-.259.993.993,0,0,1-.2-.224.847.847,0,0,1-.05-.259.785.785,0,0,1,.232.016c.191.077.374.174.563.258a1.109,1.109,0,0,0,.8.11c.213-.066.331-.193.314-.349a.366.366,0,0,0-.394-.336h-.006c-.742,0-1.484.012-2.226.031a1.96,1.96,0,0,1-.858-.226.82.82,0,0,1-.161-.144c.211-.031.384-.047.552-.085.215-.048.248-.129.111-.3a2.248,2.248,0,0,0-.305-.264,3.9,3.9,0,0,1-.46-.41.817.817,0,0,1-.159-.383c-.029-.166.065-.218.212-.136.077.043.147.1.224.143a.337.337,0,0,0,.474-.057l0,0a1.024,1.024,0,0,1,.6-.375.231.231,0,0,0,.129-.083.2.2,0,0,0,.041-.141c0-.02-.077-.04-.12-.043-.188-.015-.377-.014-.564-.039-.222-.029-.268-.093-.277-.31a.693.693,0,0,0-.443-.7.423.423,0,0,1-.19-.567.408.408,0,0,1,.1-.133,3.2,3.2,0,0,0,.352-.4c.084-.111-.005-.194-.093-.244-.132-.074-.274-.129-.436-.2.171-.125.355-.083.521-.114.073-.013.143-.039.215-.059a.484.484,0,0,0-.4-.391.872.872,0,0,1-.545-.869,4.848,4.848,0,0,0-.137-1.614.778.778,0,0,1,.264-.828c.019.155.034.279.048.4.016.14.022.283.048.422a.441.441,0,0,0,.337.372c.116.031.193-.009.18-.137-.018-.151-.055-.3-.079-.45-.019-.117-.032-.234-.052-.38a.609.609,0,0,1,.421.421,8.985,8.985,0,0,0,.478,1.138,4.859,4.859,0,0,0,.7.885c-.19-.448-.12-.98-.522-1.356a2.075,2.075,0,0,1-.307-.646,1.585,1.585,0,0,0-.154-.265c-.162-.216-.336-.423-.5-.641a.263.263,0,0,1,.021-.339.472.472,0,0,0,0-.667c-.012-.012-.024-.023-.036-.033-.1-.114-.229-.2-.334-.314a.472.472,0,0,1-.064-.171c.062-.014.135-.055.185-.037a4.919,4.919,0,0,1,.541.24c.036.019.048.093.063.144.037.123.07.247.105.37Zm14.85,14.4h.023c.119-.636.237-1.272.358-1.908.032-.168.118-.345-.115-.444-.018-.007-.026-.038-.039-.058a.238.238,0,0,0-.313-.12.241.241,0,0,0-.12.12.246.246,0,0,1-.092.1c-.111.047-.116.121-.1.226.139.7.267,1.393.4,2.087Z" transform="translate(-1276.994 -562.842)" fill="#3567b0"/>
        <path id="Trazado_16" data-name="Trazado 16" d="M1295.05,591.635l.453.111c.06-.159.124-.325.185-.492a.083.083,0,0,0,0-.069c-.158-.219-.083-.534-.3-.728a.775.775,0,0,1-.1-.172.832.832,0,0,1,.13.056,1.253,1.253,0,0,1,.555,1.227c-.077.589-.2,1.173-.308,1.758a.274.274,0,0,1-.135.168q-.731.378-1.469.739a2.052,2.052,0,0,1-1.042.131c-.318-.017-.636-.031-.953-.065a1.61,1.61,0,0,1-.336-.122c-.079-.027-.172-.081-.237-.059-.044.014-.068.139-.073.215a.372.372,0,0,0,.318.42.356.356,0,0,0,.057,0c.12.011.242,0,.367,0a.526.526,0,0,1-.663.342l-.037-.013a1.021,1.021,0,0,1-.571-.6c-.077-.184-.2-.211-.348-.078a.441.441,0,0,1-.6-.085c-.114-.206-.2-.426-.312-.633a.282.282,0,0,0-.168-.142c-.3-.038-.419-.235-.5-.5-.151-.5-.326-.983-.485-1.476-.044-.136-.119-.158-.252-.132a.864.864,0,0,1-.29-.029c-.045-.007-.091-.046-.133-.041-.133.017-.209-.023-.236-.164-.024-.125-.036-.226.106-.3a.2.2,0,0,0,.1-.263l0-.008a2.223,2.223,0,0,1-.056-.281c.112.039.2.044.245.089a.345.345,0,0,0,.467.005.469.469,0,0,0,.145-.128.578.578,0,0,1,.4-.249.3.3,0,0,0,.281-.318.232.232,0,0,0-.008-.052.531.531,0,0,1,.223-.5,4.3,4.3,0,0,0,.354-.321,1.683,1.683,0,0,0,.136-.168c-.168-.02-.288-.032-.407-.049a.3.3,0,0,1-.28-.318.305.305,0,0,1,.061-.164.2.2,0,0,1,.136-.055,3.6,3.6,0,0,1,.389,0,.2.2,0,0,0,.216-.141,2.433,2.433,0,0,0,.157-.43.7.7,0,0,1,.309-.5c.281-.181.578-.339.872-.5.33-.18.68-.329.994-.534.331-.216.357-.391.237-.772a.5.5,0,0,1,.167-.557c.254-.221.249-.321-.037-.5a4.317,4.317,0,0,1-.493-.319h2.1a1.916,1.916,0,0,1,1.793,1.082,3.479,3.479,0,0,1,.378,1.919.916.916,0,0,1-.253.486,8.494,8.494,0,0,1-.658.615,1.154,1.154,0,0,1-.971.33c.06-.064.1-.1.135-.143.172-.17.347-.337.514-.511a.686.686,0,0,0,.161-.23.891.891,0,0,0,.008-.263c-.082,0-.191-.029-.242.012a3.231,3.231,0,0,0-.538.5,1.3,1.3,0,0,1-.8.536.341.341,0,0,0-.2.144.821.821,0,0,0-.11.313c-.023.179-.043.314-.265.383a.42.42,0,0,0-.194.562.409.409,0,0,0,.094.125.247.247,0,0,0,.151.031c.16,0,.182.074.128.2-.028.065-.065.126-.094.19-.065.137-.038.2.113.212.1.01.145.051.146.154a.689.689,0,0,0,.036.191c.056.2.132.233.328.161.133-.048.3-.128.378.038s-.11.243-.228.3a1.7,1.7,0,0,1-2.271-.788c-.016-.034-.031-.069-.046-.1a.541.541,0,0,0-.065-.108,1.412,1.412,0,0,0-.234.242,2.19,2.19,0,0,0-.231,1.339,1.785,1.785,0,0,0,1.225,1.145h.035c.165,0,.348.017.45-.143s.014-.307-.06-.45c-.024-.046-.047-.093-.069-.138a.454.454,0,0,1,.589.006.61.61,0,0,1,.178.194,1.07,1.07,0,0,0,.725.565.571.571,0,0,0,.32-.013c.2-.065.372-.167.4-.411a.4.4,0,0,1,.07-.142c.142-.237.136-.232-.031-.461A1.236,1.236,0,0,1,1295.05,591.635Z" transform="translate(-1276.994 -562.831)" fill="#3567b0"/>
        <path id="Trazado_17" data-name="Trazado 17" d="M1305.922,583.331a12.5,12.5,0,0,0,1.884-4.309l.053.012c-.017.363-.021.728-.052,1.09a12.482,12.482,0,0,1-.927,3.818,12.8,12.8,0,0,1-4.442,5.488,15.352,15.352,0,0,1-5.555,2.48c-.173.04-.243-.007-.266-.168a.236.236,0,0,0-.016-.069c-.073-.156-.018-.219.144-.272.565-.186,1.138-.359,1.682-.6a12.745,12.745,0,0,0,6.047-5.4,12.766,12.766,0,0,0,1.669-7.432c-.018-.225,0-.245.218-.255h.205A13.563,13.563,0,0,1,1305.922,583.331Z" transform="translate(-1276.994 -562.831)" fill="#3567b0"/>
        <path id="Trazado_18" data-name="Trazado 18" d="M1278.794,579.009a12.34,12.34,0,0,0,1.9,4.327c-.015-.051-.028-.1-.044-.153a12.378,12.378,0,0,1-.645-3.43c-.021-.606,0-1.214.007-1.82,0-.071.032-.2.063-.2a1.061,1.061,0,0,1,.346.025c.022,0,.042.091.038.138a13.025,13.025,0,0,0,.013,2.278,12.418,12.418,0,0,0,1.013,3.958,12.834,12.834,0,0,0,5.565,6.124c.125.07.167.134.081.258a1.756,1.756,0,0,0-.1.185c-.173.322-.111.3-.424.15a13.708,13.708,0,0,1-5.8-4.884,12.03,12.03,0,0,1-1.933-5.23c-.07-.565-.1-1.136-.144-1.7Z" transform="translate(-1276.994 -562.831)" fill="#3567b0"/>
        <path id="Trazado_19" data-name="Trazado 19" d="M1283.438,570.667l-.034-.006c-.346-.207-.348-.221-.08-.519a13.261,13.261,0,0,1,6.872-4.125,12.627,12.627,0,0,1,3.508-.362,13.18,13.18,0,0,1,8.739,3.635c.323.3.61.64.925.951.13.129.129.22-.024.317-.054.034-.1.078-.163.126a12.938,12.938,0,0,0-19.743-.017Z" transform="translate(-1276.994 -562.842)" fill="#3567b0"/>
        <path id="Trazado_20" data-name="Trazado 20" d="M1291.971,585.314h-.141c-.127.012-.179-.058-.161-.169.021-.132.073-.258.1-.39a.714.714,0,0,0,.009-.312.269.269,0,0,1,.078-.331c.124-.092.231-.035.324.067a.829.829,0,0,1,.224.8C1292.328,585.276,1292.28,585.314,1291.971,585.314Z" transform="translate(-1276.994 -562.835)" fill="#3567b0"/>
      </g>
    </g>
  </g>
</svg>
