<svg xmlns="http://www.w3.org/2000/svg" width="14.094" height="16.117" viewBox="0 0 14.094 16.117">
  <path id="dragon" d="M7.509,16.117a6.619,6.619,0,0,1-3.955-1.291,6.493,6.493,0,0,1-2.345-3.273,2.6,2.6,0,0,1-.05-.261c-.074-.544-.07-.854.014-.948a.084.084,0,0,1,.067-.033.146.146,0,0,1,.045.009,1.585,1.585,0,0,1,.275.533,9.476,9.476,0,0,0,.423.91,2.587,2.587,0,0,0,.74.891c.008,0,.01-.005.011-.009a1.157,1.157,0,0,0-.195-.355c-.082-.125-.176-.271-.257-.415-.164-.293-.235-.516-.194-.612a.087.087,0,0,1,.061-.053l.022,0c.13,0,.346.269.6.58l.011.013c.128.159.259.324.4.479a2.442,2.442,0,0,0,.838.66.023.023,0,0,0,.012,0,.024.024,0,0,0,.013-.015c.013-.049-.077-.182-.189-.35-.067-.1-.132-.2-.188-.293l-.008-.014c-.142-.241-.255-.432-.138-.5a.118.118,0,0,1,.062-.016c.137,0,.355.187.57.39l.088.083.011.011c.167.159.312.3.378.3a.033.033,0,0,0,.022-.007c.049-.042.016-.146-.016-.247s-.072-.226-.028-.3a.145.145,0,0,1,.112-.06h.013a.834.834,0,0,1,.3.131l.01.005c.1.057.225.124.373.194a2.746,2.746,0,0,0,1.645.54,2.7,2.7,0,0,0,2.724-2.664A2.661,2.661,0,0,0,8.1,7.662a.849.849,0,0,1-.277.361.963.963,0,0,1-.479.183c-.079.013-.177.029-.318.058C6.515,8.369.713,9.7.655,9.713c-.008,0-.049,0-.108,0a.765.765,0,0,1-.508-.147C-.14,9.389.361,8.485.366,8.476a32.389,32.389,0,0,1,2.01-3.262c.059-.057.247-.195.531-.4.621-.453,1.659-1.212,2.725-2.14A17.475,17.475,0,0,0,7.563.739,2.905,2.905,0,0,0,7.757.455C7.91.211,8.042,0,8.327,0a.41.41,0,0,1,.321.126c.178.2.134.595.108.831,0,.024-.005.046-.007.067a15.186,15.186,0,0,1-.631,1.759,3.054,3.054,0,0,0-.088.476,6.622,6.622,0,0,1,4.3,2.04,6.339,6.339,0,0,1,1.761,4.379A6.52,6.52,0,0,1,7.509,16.117ZM2.855,7.309s.035,0,.1,0a2.153,2.153,0,0,0,1.405-.449,1.753,1.753,0,0,0,.412-1.371A11.222,11.222,0,0,0,3.69,6.3a10.448,10.448,0,0,0-.835,1.011Z" fill="#fff"/>
</svg>
