<svg xmlns="http://www.w3.org/2000/svg" width="52.948" height="30.633" viewBox="0 0 52.948 30.633">
  <g id="Grupo_161" data-name="Grupo 161" transform="translate(-1172.497 -621.135)">
    <path id="Trazado_109" data-name="Trazado 109" d="M1185.876,652.491a8.057,8.057,0,1,1,8.058-8.058A8.055,8.055,0,0,1,1185.876,652.491Z" transform="translate(-1.564 -4.48)" fill="#ffcb05"/>
    <circle id="Elipse_3" data-name="Elipse 3" cx="2.617" cy="2.617" r="2.617" transform="translate(1196.365 633.612)" fill="#ffcb05"/>
    <circle id="Elipse_4" data-name="Elipse 4" cx="8.057" cy="8.057" r="8.057" transform="translate(1205.595 631.896)" fill="#ffcb05"/>
    <g id="Grupo_152" data-name="Grupo 152" transform="translate(1172.497 621.135)">
      <g id="Grupo_151" data-name="Grupo 151">
        <path id="Trazado_110" data-name="Trazado 110" d="M1228.692,640.651a5.03,5.03,0,0,0-5.027,5.028,1.205,1.205,0,1,0,2.41,0,2.637,2.637,0,0,1,2.628-2.628,1.2,1.2,0,1,0-.011-2.4Z" transform="translate(-1187.537 -626.871)" fill="#3567b0"/>
        <path id="Trazado_111" data-name="Trazado 111" d="M1221.851,631.451c-.294-.282-.609-.554-.934-.814h0l-4.452-3.779a11.68,11.68,0,0,0-5.972-2.139l.239.239-2.7-2.715h-.022a4.235,4.235,0,0,0-6.885,1.824,3.87,3.87,0,0,0-1.856-.6,3.354,3.354,0,0,0-.337-.011,3.945,3.945,0,0,0-2.1.608,4.238,4.238,0,0,0-6.885-1.813h-.022l-2.7,2.715.239-.239a11.738,11.738,0,0,0-5.972,2.139l-4.452,3.779h0a9.645,9.645,0,0,0-.934.815,11.811,11.811,0,1,0,19.927,9.946,5.925,5.925,0,0,0,5.885,0,11.811,11.811,0,0,0,23.531-1.466A11.713,11.713,0,0,0,1221.851,631.451Zm-37.539,16.56a8.057,8.057,0,1,1,8.058-8.058A8.054,8.054,0,0,1,1184.312,648.011Zm14.671-9.165a2.617,2.617,0,1,1,2.617-2.617A2.618,2.618,0,0,1,1198.982,638.846Zm14.67,9.165a8.057,8.057,0,1,1,8.058-8.058A8.055,8.055,0,0,1,1213.652,648.011Z" transform="translate(-1172.497 -621.135)" fill="#3567b0"/>
        <path id="Trazado_112" data-name="Trazado 112" d="M1187.137,640.651a5.03,5.03,0,0,0-5.027,5.028,1.205,1.205,0,1,0,2.411,0,2.637,2.637,0,0,1,2.628-2.628,1.2,1.2,0,1,0-.011-2.4Z" transform="translate(-1175.323 -626.871)" fill="#3567b0"/>
      </g>
    </g>
  </g>
</svg>
