<svg xmlns="http://www.w3.org/2000/svg" width="28.919" height="30" viewBox="0 0 28.919 30">
  <g id="Grupo_157" data-name="Grupo 157" transform="translate(-2875 -385)">
    <g id="Grupo_134" data-name="Grupo 134" transform="translate(1243.831 -31.605)">
      <g id="Grupo_132" data-name="Grupo 132" transform="translate(1631.169 416.651)">
        <path id="Trazado_88" data-name="Trazado 88" d="M1650.015,418.667a6.447,6.447,0,1,0,6.448,6.448A6.447,6.447,0,0,0,1650.015,418.667Z" transform="translate(-1627.543 -416.048)" fill="#ffcb05"/>
        <path id="Trazado_89" data-name="Trazado 89" d="M1654.554,434.961a2.176,2.176,0,0,0-.355-.235.553.553,0,0,0-.187-.076c0,.01-.539-.2-1.2-.468,0,0-.721-.291-2.091-.731-1.922-.618-4.964,1.6-4.964,1.6a4.649,4.649,0,0,1-2.336.76h-3.256a1.163,1.163,0,0,1-1.176-1.287s.035-.379.14-1.33c.389-2.834.474-7.289.474-7.289.014-.711.174-1.277.357-1.258a7.017,7.017,0,0,0,.976-.019c.355-.03,1.365-.221,1.534-.078a2.243,2.243,0,0,0,.664.367c.2.061,1-.614,1.468-1.145l1.469-1.657a7.282,7.282,0,0,0,.989-1.32,4.345,4.345,0,0,0-.848-1.71l-.861-1.184a8.42,8.42,0,0,0-1.032-1.235,4.141,4.141,0,0,0-1.756.486l-4.812,2.2a13.3,13.3,0,0,0-1.477.761l-.067.171c-.042.1-4.726,19.14-4.726,19.14-.169.69-.312,1.3-.314,1.361l0,.045c.027.292.429,2.854,6.45,3.177,1.159.061,2.4.089,3.5.115,4.6.107,9.367.217,11.486,2.231a.7.7,0,0,0,.48.2l.2,0a1.948,1.948,0,0,1,.337-.235c.019,0,.037-.019.04-.048a2.605,2.605,0,0,1,.089-.3c.047-.136.056-1.064.131-1.771l.753-7.091c.075-.707.138-1.287.141-1.29v0l.044-.12c-.005-.134-.006-.274,0-.313s0-.07-.014-.071A2.763,2.763,0,0,0,1654.554,434.961Z" transform="translate(-1631.169 -416.64)" fill="#ffcb05"/>
      </g>
      <g id="Grupo_133" data-name="Grupo 133" transform="translate(1631.169 416.605)">
        <path id="Trazado_90" data-name="Trazado 90" d="M1654.386,434.875l-.375-.189v.037c-.615-.256-1.919-.778-3.288-1.217-1.922-.619-5,1.574-6.01,2.356h-5.839c.035-.624.15-1.666.254-2.617a54.909,54.909,0,0,0,.5-8.583l.663.07a3.788,3.788,0,0,0,1.871-.392l.613.52a.685.685,0,0,0,.968-.071l3.186-3.589a.833.833,0,0,0,.044-1.018l-2.381-3.275a.693.693,0,0,0-.854-.243l-7.161,3.283a.738.738,0,0,0-.371.393,76.587,76.587,0,0,0-5.034,20.4.668.668,0,0,0,0,.151c.026.291.428,2.852,6.449,3.175,1.161.062,2.4.09,3.5.116,4.606.106,9.367.216,11.487,2.229a.682.682,0,0,0,1.038-.094.826.826,0,0,0-.085-1.075c-2.518-2.391-7.549-2.507-12.413-2.62-1.255-.028-2.382-.057-3.457-.114-4.16-.226-4.95-1.5-5.067-1.76a75.079,75.079,0,0,1,4.786-19.485l6.385-2.931,1.657,2.284-2.3,2.587-.542-.455a.669.669,0,0,0-.623-.158.717.717,0,0,0-.43.328,2.307,2.307,0,0,1-1.185.255l-1.46-.149a.7.7,0,0,0-.6.252.813.813,0,0,0-.184.606,47.351,47.351,0,0,1-.433,9.172c-.337,3.066-.371,3.645-.046,4.067a.748.748,0,0,0,.6.3h6.7a.684.684,0,0,0,.429-.155c1.326-1.062,3.847-2.613,4.93-2.268,1.507.485,2.947,1.078,3.532,1.326a.7.7,0,0,0,.542-.008.731.731,0,0,0,.4-.445A.8.8,0,0,0,1654.386,434.875Z" transform="translate(-1631.169 -416.605)" fill="#3567b0"/>
        <path id="Trazado_91" data-name="Trazado 91" d="M1644.317,433.8a.714.714,0,0,0-.452-.31.7.7,0,0,0-.543.1.727.727,0,0,0-.227.977,8.667,8.667,0,0,0,5.063,3.531.7.7,0,0,0,.163.018.725.725,0,0,0,.383-.11.71.71,0,0,0,.318-.448.724.724,0,0,0-.507-.858A7.365,7.365,0,0,1,1644.317,433.8Z" transform="translate(-1627.712 -411.672)" fill="#3567b0"/>
        <path id="Trazado_92" data-name="Trazado 92" d="M1650.015,418.7a6.446,6.446,0,1,0,6.446,6.446A6.446,6.446,0,0,0,1650.015,418.7Zm0,11.819h0a5.372,5.372,0,1,1,5.372-5.372A5.372,5.372,0,0,1,1650.015,430.52Z" transform="translate(-1627.544 -415.991)" fill="#3567b0"/>
        <path id="Trazado_93" data-name="Trazado 93" d="M1636.6,434.036a.73.73,0,0,0-.523.169.717.717,0,0,0-.252.492.721.721,0,0,0,.683.778l7.45.464a.726.726,0,0,0,.51-.213.715.715,0,0,0,.209-.512.726.726,0,0,0-.675-.717Z" transform="translate(-1629.81 -411.509)" fill="#3567b0"/>
        <path id="Trazado_94" data-name="Trazado 94" d="M1649.179,424.792a3.48,3.48,0,0,0-2.562,1,.753.753,0,0,0,1.115,1.013,2.027,2.027,0,0,1,1.446-.507,2.055,2.055,0,0,1,1.441.5.753.753,0,1,0,1.1-1.025A3.5,3.5,0,0,0,1649.179,424.792Z" transform="translate(-1626.709 -414.212)" fill="#3567b0"/>
        <path id="Trazado_95" data-name="Trazado 95" d="M1647.676,423.021a.807.807,0,1,0-.806.806A.806.806,0,0,0,1647.676,423.021Z" transform="translate(-1626.814 -414.964)" fill="#3567b0"/>
        <path id="Trazado_96" data-name="Trazado 96" d="M1650.61,422.216a.806.806,0,1,0,.806.805A.807.807,0,0,0,1650.61,422.216Z" transform="translate(-1625.721 -414.964)" fill="#3567b0"/>
      </g>
    </g>
  </g>
</svg>
