<svg xmlns="http://www.w3.org/2000/svg" width="29.153" height="30.697" viewBox="0 0 29.153 30.697">
  <g id="Grupo_156" data-name="Grupo 156" transform="translate(-2931.509 -243.059)">
    <g id="Grupo_129" data-name="Grupo 129" transform="translate(1373.837 -166.31)">
      <g id="Grupo_129-2" data-name="Grupo 129" transform="translate(1557.672 409.368)">
        <path id="Trazado_77" data-name="Trazado 77" d="M1572.2,415.927h1.218v1.109a.779.779,0,0,0,.779.779h3.942a.779.779,0,0,0,.779-.779v-1.109h1.193a.78.78,0,0,0,.779-.777.8.8,0,0,0-.167-.485l-3.961-5.018a.8.8,0,0,0-1.122-.087,1,1,0,0,0-.094.1l-3.952,5.009a.764.764,0,0,0-.163.572.776.776,0,0,0,.771.69Z" transform="translate(-1551.742 -409.368)" fill="#ffcb05"/>
        <path id="Trazado_78" data-name="Trazado 78" d="M1577.541,417.566c.443,0,.778-.246.778-.572v-.839c0-.326-.335-.572-.778-.572H1573.6c-.442,0-.778.246-.778.572v.839c0,.326.336.572.778.572Z" transform="translate(-1551.141 -406.69)" fill="#fff800"/>
        <path id="Trazado_79" data-name="Trazado 79" d="M1573.6,418.84h3.942a.779.779,0,1,0,0-1.559H1573.6a.779.779,0,1,0,0,1.559Z" transform="translate(-1551.14 -405.957)" fill="#fff800"/>
        <path id="Trazado_80" data-name="Trazado 80" d="M1586.765,438.064v-3.644a.789.789,0,0,0,.06-.285.777.777,0,0,0-.06-.3V425.8a1.391,1.391,0,0,0-.039-.19.773.773,0,0,0-.2-.949,8.27,8.27,0,0,0-5.756-1.719,7.441,7.441,0,0,0-4.744,2.735,7.248,7.248,0,0,0-7.524-.325l-.412-7a3.6,3.6,0,0,0,.943-.312l.5.464a1.709,1.709,0,0,0,2.369-.172l2.4-2.692a1.711,1.711,0,0,0,.09-2.152l-2.672-3.481a.779.779,0,0,0-.939-.226l-7.841,3.579a1.481,1.481,0,0,0-.794.82c-.287.86-4.475,15.761-4.475,17v1.144a1.479,1.479,0,0,0,.585,1.174,3.315,3.315,0,0,0,.82.382,5.168,5.168,0,0,1,.883.388l.675.5a20.8,20.8,0,0,0,7.516,4.07,24.245,24.245,0,0,0,9.914-.427,15.108,15.108,0,0,0,6.525,1.508,14.057,14.057,0,0,0,1.539-.084.779.779,0,0,0,.687-.859.764.764,0,0,0-.16-.373A1.438,1.438,0,0,0,1586.765,438.064Z" transform="translate(-1557.672 -409.222)" fill="#ffcb05"/>
      </g>
      <g id="Grupo_130" data-name="Grupo 130" transform="translate(1557.672 409.368)">
        <path id="Trazado_81" data-name="Trazado 81" d="M1577.785,413.758l-2.346-2.973-2.346,2.974h.386a.779.779,0,0,1,.778.779v1.109h2.385v-1.111a.779.779,0,0,1,.778-.779Z" transform="translate(-1551.023 -408.758)" fill="none"/>
        <path id="Trazado_82" data-name="Trazado 82" d="M1585.956,438.286l-.13.016a13.474,13.474,0,0,1-7.279-1.393.755.755,0,0,0-.587-.076,23.5,23.5,0,0,1-9.465.49,19.531,19.531,0,0,1-6.914-3.791l-.136-.1c-.2-.146-.385-.286-.581-.428a5.715,5.715,0,0,0-1.245-.587l-.388-.147v-1.085c.014-.846,3.681-14.3,4.358-16.408l7.28-3.325,2.283,2.971a.143.143,0,0,1-.012.182l-2.4,2.689a.139.139,0,0,1-.173.036l-.972-.9a.789.789,0,0,0-.677-.177.8.8,0,0,0-.507.342,2.318,2.318,0,0,1-1.327.288l-.242-.024a.766.766,0,0,0-.571.17.775.775,0,0,0-.125,1.081c.167.217.3.4.408.537l.478,8a3.342,3.342,0,0,1-.538,1.361.779.779,0,0,0,.326,1.486c.7,0,1.244-.749,1.667-2.288a5.766,5.766,0,0,1,7.176.117,3.643,3.643,0,0,1,1.219,1.9.779.779,0,0,0,.788.77.789.789,0,0,0,.769-.824,4.416,4.416,0,0,0-1.219-2.482,5.934,5.934,0,0,1,3.718-2.2,6.831,6.831,0,0,1,4.608,1.381.778.778,0,1,0,.979-1.211,8.271,8.271,0,0,0-5.757-1.719,7.442,7.442,0,0,0-4.743,2.735,7.248,7.248,0,0,0-7.524-.325l-.412-7a3.6,3.6,0,0,0,.943-.312l.5.464a1.709,1.709,0,0,0,2.369-.172l2.4-2.692a1.711,1.711,0,0,0,.09-2.152l-2.672-3.481a.779.779,0,0,0-.939-.226l-7.841,3.579a1.481,1.481,0,0,0-.794.82c-.287.86-4.475,15.761-4.475,17v1.144a1.479,1.479,0,0,0,.585,1.174,3.315,3.315,0,0,0,.82.382,5.168,5.168,0,0,1,.883.388l.675.5a20.8,20.8,0,0,0,7.516,4.07,24.245,24.245,0,0,0,9.914-.427,15.108,15.108,0,0,0,6.525,1.508,14.057,14.057,0,0,0,1.539-.084.779.779,0,1,0-.173-1.548Z" transform="translate(-1557.672 -409.222)" fill="#3567b0"/>
        <path id="Trazado_83" data-name="Trazado 83" d="M1578.747,426.688c-1.8-.295-2.243-.757-2.314-.846a.786.786,0,0,0-.814-.661.776.776,0,0,0-.734.8c0,.5.352,1.7,3.632,2.248a.5.5,0,0,0,.065,0,.132.132,0,0,0,.044,0,.778.778,0,0,0,.122-1.547Z" transform="translate(-1550.251 -402.551)" fill="#3567b0"/>
        <path id="Trazado_84" data-name="Trazado 84" d="M1572.2,415.927h1.218v1.109a.779.779,0,0,0,.779.779h3.942a.779.779,0,0,0,.779-.779v-1.109h1.193a.78.78,0,0,0,.779-.777.8.8,0,0,0-.167-.485l-3.961-5.018a.8.8,0,0,0-1.122-.087,1,1,0,0,0-.094.1l-3.952,5.009a.764.764,0,0,0-.163.572.776.776,0,0,0,.771.69Zm5.159-.78v1.111h-2.384v-1.109a.779.779,0,0,0-.779-.779h-.386l2.346-2.974,2.346,2.973h-.364A.779.779,0,0,0,1577.362,415.147Z" transform="translate(-1551.742 -409.368)" fill="#3567b0"/>
        <path id="Trazado_85" data-name="Trazado 85" d="M1577.541,417.566c.443,0,.778-.246.778-.572v-.839c0-.326-.335-.572-.778-.572H1573.6c-.442,0-.778.246-.778.572v.839c0,.326.336.572.778.572Z" transform="translate(-1551.141 -406.69)" fill="#3567b0"/>
        <path id="Trazado_86" data-name="Trazado 86" d="M1573.6,418.84h3.942a.779.779,0,1,0,0-1.559H1573.6a.779.779,0,1,0,0,1.559Z" transform="translate(-1551.14 -405.957)" fill="#3567b0"/>
        <path id="Trazado_87" data-name="Trazado 87" d="M1572.854,428.424a.775.775,0,0,0-.587-.107l-.24.054c-6.079,1.182-8.67-2.958-8.78-3.139a.778.778,0,1,0-1.327.814,8.679,8.679,0,0,0,2.576,2.515,9.812,9.812,0,0,0,5.33,1.571h.122a12.7,12.7,0,0,0,2.645-.292.78.78,0,0,0,.492-.339.78.78,0,0,0-.23-1.076Z" transform="translate(-1555.891 -402.691)" fill="#3567b0"/>
      </g>
    </g>
  </g>
</svg>
