<svg xmlns="http://www.w3.org/2000/svg" width="21.559" height="21.559" viewBox="0 0 21.559 21.559">
  <g id="Grupo_154" data-name="Grupo 154" transform="translate(-2890 -116.104)">
    <circle id="Elipse_8" data-name="Elipse 8" cx="8" cy="8" r="8" transform="translate(2891 117)" fill="#ffcb05"/>
    <g id="Content" transform="translate(2890 116.104)">
      <g id="Resources_Search" data-name="Resources/Search" transform="translate(0 0)">
        <path id="Search" d="M20.285,21.559a1.28,1.28,0,0,1-.922-.394l-5.9-5.9-.006,0A8.273,8.273,0,0,1,8.5,16.9H8.469A8.485,8.485,0,0,1,2.448,2.456,8.432,8.432,0,0,1,8.372,0h.036a8.52,8.52,0,0,1,8.469,8.482,8.3,8.3,0,0,1-1.617,4.977l5.9,5.9a1.273,1.273,0,0,1-.877,2.195ZM8.383,1.691A6.7,6.7,0,0,0,1.688,8.427a6.839,6.839,0,0,0,6.776,6.786H8.49a6.7,6.7,0,0,0,6.7-6.737A6.836,6.836,0,0,0,8.414,1.691Z" fill="#3567b0"/>
      </g>
    </g>
  </g>
</svg>
