<svg xmlns="http://www.w3.org/2000/svg" width="13.095" height="14.101" viewBox="0 0 13.095 14.101">
  <path id="psychic" d="M12.062,11.711s-1.778,1.426-5.317.836c-2.685-.448-4.116-3.407-4.116-5,0-3.772,2.791-4.63,4.679-4.63a3.328,3.328,0,0,1,3.118,3.264A2.564,2.564,0,0,1,7.85,8.854,1.9,1.9,0,0,1,5.818,6.741,1.384,1.384,0,0,1,7.383,5.373c.747,0,1,.638,1,1.185a.721.721,0,0,1-.78.744c-.355,0-.39-.179-.525-.367s.173-.9-.335-.9-.6.818-.6.818A1.726,1.726,0,0,0,7.85,8.406a1.964,1.964,0,0,0,2.035-2.37A2.8,2.8,0,0,0,6.559,3.882c-1.985.25-2.8,2.256-2.438,4.4s2.925,3.386,4.944,2.939,4.03-1.909,4.03-5.615S9.885-.328,6.058.039-.145,3.753.007,7.773,3.974,13.983,7.2,14.1a7.629,7.629,0,0,0,5.2-1.754s.445-.4.27-.706S12.062,11.711,12.062,11.711Z" fill="#fff"/>
</svg>
