<svg xmlns="http://www.w3.org/2000/svg" width="14.072" height="11.06" viewBox="0 0 14.072 11.06">
  <path id="rock" d="M7.631,11.051,4.359,9.979l5.708-3.905a.184.184,0,0,1,.257.049l1.3,1.936a.183.183,0,0,1-.045.252L7.8,11.026a.184.184,0,0,1-.107.035A.188.188,0,0,1,7.631,11.051ZM2.993,9.7.127,8.758A.183.183,0,0,1,0,8.583V5.64a.184.184,0,0,1,.043-.118l4.5-5.43A.184.184,0,0,1,4.685.025H10.48a.184.184,0,0,1,.182.211L9.967,4.9a.18.18,0,0,1-.077.124L3.155,9.672a.184.184,0,0,1-.1.033A.18.18,0,0,1,2.993,9.7Zm9.5-2.268L10.933,5.3a.185.185,0,0,1-.034-.141L11.759.153A.184.184,0,0,1,11.94,0h0a.184.184,0,0,1,.176.129l1.945,6.16a.183.183,0,0,1-.063.2l-1.247.975a.184.184,0,0,1-.262-.036Z" fill="#fff"/>
</svg>
